<svg width="340" height="201" viewBox="0 0 340 201" fill="none" xmlns="http://www.w3.org/2000/svg">
<g clip-path="url(#clip0_3401_2179)">
<path d="M314.5 6.5H29.5C20.1112 6.5 12.5 14.1112 12.5 23.5V171.5C12.5 180.889 20.1112 188.5 29.5 188.5H314.5C323.889 188.5 331.5 180.889 331.5 171.5V23.5C331.5 14.1112 323.889 6.5 314.5 6.5Z" fill="#FCE4A1"/>
<path fill-rule="evenodd" clip-rule="evenodd" d="M306 105.999C306 124.698 295.533 140.997 280.03 149.575C272.636 153.665 264.096 156 255 156C226.833 156 204 133.617 204 105.999C204 78.383 226.833 56 255 56C283.167 56 306 78.383 306 105.999Z" fill="white"/>
<path fill-rule="evenodd" clip-rule="evenodd" d="M291.206 106C291.206 119.274 283.776 130.845 272.77 136.935C267.52 139.839 261.458 141.496 255 141.496C235.004 141.496 218.794 125.606 218.794 105.999C218.794 86.394 235.004 70.504 255 70.504C274.996 70.504 291.206 86.395 291.206 106Z" stroke="#FFE8B6" stroke-width="3.817"/>
<path fill-rule="evenodd" clip-rule="evenodd" d="M261.557 95.07V98.793H266V102.3H261.426C261.078 104.898 259.981 106.86 258.137 108.189C256.293 109.516 253.484 110.18 249.708 110.18V112.908C249.708 115.91 250.958 117.411 253.455 117.411C254.675 117.411 255.582 117.035 256.177 116.285C256.772 115.535 257.07 114.409 257.07 112.908H262.777C262.66 115.765 261.833 117.995 260.294 119.598C258.754 121.199 256.562 122 253.716 122C250.551 122 248.133 121.17 246.463 119.51C244.793 117.85 243.958 115.361 243.958 112.042V106.197C247.124 106.197 249.491 106.103 251.058 105.916C252.627 105.728 253.752 105.36 254.435 104.811C255.117 104.263 255.545 103.426 255.72 102.301H243V98.793H255.807V95.07H243V91H266V95.07H261.557Z" fill="#FFE8B6"/>
<g opacity="0.553">
<path d="M150.291 17.916C151.556 17.916 152.582 16.8155 152.582 15.458C152.582 14.1005 151.556 13 150.291 13C149.026 13 148 14.1005 148 15.458C148 16.8155 149.026 17.916 150.291 17.916Z" fill="white"/>
<path d="M161.955 17.916C163.22 17.916 164.246 16.8155 164.246 15.458C164.246 14.1005 163.22 13 161.955 13C160.69 13 159.664 14.1005 159.664 15.458C159.664 16.8155 160.69 17.916 161.955 17.916Z" fill="white"/>
<path d="M174.452 17.916C175.717 17.916 176.743 16.8155 176.743 15.458C176.743 14.1005 175.717 13 174.452 13C173.187 13 172.161 14.1005 172.161 15.458C172.161 16.8155 173.187 17.916 174.452 17.916Z" fill="white"/>
<path d="M150.291 17.916C151.556 17.916 152.582 16.8155 152.582 15.458C152.582 14.1005 151.556 13 150.291 13C149.026 13 148 14.1005 148 15.458C148 16.8155 149.026 17.916 150.291 17.916Z" fill="white"/>
<path d="M161.955 17.916C163.22 17.916 164.246 16.8155 164.246 15.458C164.246 14.1005 163.22 13 161.955 13C160.69 13 159.664 14.1005 159.664 15.458C159.664 16.8155 160.69 17.916 161.955 17.916Z" fill="white"/>
<path d="M174.452 17.916C175.717 17.916 176.743 16.8155 176.743 15.458C176.743 14.1005 175.717 13 174.452 13C173.187 13 172.161 14.1005 172.161 15.458C172.161 16.8155 173.187 17.916 174.452 17.916Z" fill="white"/>
<path d="M150.291 30.822C151.556 30.822 152.582 29.7215 152.582 28.364C152.582 27.0065 151.556 25.906 150.291 25.906C149.026 25.906 148 27.0065 148 28.364C148 29.7215 149.026 30.822 150.291 30.822Z" fill="white"/>
<path d="M161.955 30.822C163.22 30.822 164.246 29.7215 164.246 28.364C164.246 27.0065 163.22 25.906 161.955 25.906C160.69 25.906 159.664 27.0065 159.664 28.364C159.664 29.7215 160.69 30.822 161.955 30.822Z" fill="white"/>
<path d="M174.452 30.822C175.717 30.822 176.743 29.7215 176.743 28.364C176.743 27.0065 175.717 25.906 174.452 25.906C173.187 25.906 172.161 27.0065 172.161 28.364C172.161 29.7215 173.187 30.822 174.452 30.822Z" fill="white"/>
<path d="M150.291 30.822C151.556 30.822 152.582 29.7215 152.582 28.364C152.582 27.0065 151.556 25.906 150.291 25.906C149.026 25.906 148 27.0065 148 28.364C148 29.7215 149.026 30.822 150.291 30.822Z" fill="white"/>
<path d="M161.955 30.822C163.22 30.822 164.246 29.7215 164.246 28.364C164.246 27.0065 163.22 25.906 161.955 25.906C160.69 25.906 159.664 27.0065 159.664 28.364C159.664 29.7215 160.69 30.822 161.955 30.822Z" fill="white"/>
<path d="M174.452 30.822C175.717 30.822 176.743 29.7215 176.743 28.364C176.743 27.0065 175.717 25.906 174.452 25.906C173.187 25.906 172.161 27.0065 172.161 28.364C172.161 29.7215 173.187 30.822 174.452 30.822Z" fill="white"/>
<path d="M150.291 43.728C151.556 43.728 152.582 42.6275 152.582 41.27C152.582 39.9125 151.556 38.812 150.291 38.812C149.026 38.812 148 39.9125 148 41.27C148 42.6275 149.026 43.728 150.291 43.728Z" fill="white"/>
<path d="M161.955 43.728C163.22 43.728 164.246 42.6275 164.246 41.27C164.246 39.9125 163.22 38.812 161.955 38.812C160.69 38.812 159.664 39.9125 159.664 41.27C159.664 42.6275 160.69 43.728 161.955 43.728Z" fill="white"/>
<path d="M174.452 43.728C175.717 43.728 176.743 42.6275 176.743 41.27C176.743 39.9125 175.717 38.812 174.452 38.812C173.187 38.812 172.161 39.9125 172.161 41.27C172.161 42.6275 173.187 43.728 174.452 43.728Z" fill="white"/>
<path d="M150.291 43.728C151.556 43.728 152.582 42.6275 152.582 41.27C152.582 39.9125 151.556 38.812 150.291 38.812C149.026 38.812 148 39.9125 148 41.27C148 42.6275 149.026 43.728 150.291 43.728Z" fill="white"/>
<path d="M161.955 43.728C163.22 43.728 164.246 42.6275 164.246 41.27C164.246 39.9125 163.22 38.812 161.955 38.812C160.69 38.812 159.664 39.9125 159.664 41.27C159.664 42.6275 160.69 43.728 161.955 43.728Z" fill="white"/>
<path d="M174.452 43.728C175.717 43.728 176.743 42.6275 176.743 41.27C176.743 39.9125 175.717 38.812 174.452 38.812C173.187 38.812 172.161 39.9125 172.161 41.27C172.161 42.6275 173.187 43.728 174.452 43.728Z" fill="white"/>
<path d="M186.984 17.916C188.249 17.916 189.275 16.8155 189.275 15.458C189.275 14.1005 188.249 13 186.984 13C185.719 13 184.693 14.1005 184.693 15.458C184.693 16.8155 185.719 17.916 186.984 17.916Z" fill="white"/>
<path d="M198.648 17.916C199.913 17.916 200.939 16.8155 200.939 15.458C200.939 14.1005 199.913 13 198.648 13C197.383 13 196.357 14.1005 196.357 15.458C196.357 16.8155 197.383 17.916 198.648 17.916Z" fill="white"/>
<path d="M211.145 17.916C212.41 17.916 213.436 16.8155 213.436 15.458C213.436 14.1005 212.41 13 211.145 13C209.88 13 208.854 14.1005 208.854 15.458C208.854 16.8155 209.88 17.916 211.145 17.916Z" fill="white"/>
<path d="M186.984 17.916C188.249 17.916 189.275 16.8155 189.275 15.458C189.275 14.1005 188.249 13 186.984 13C185.719 13 184.693 14.1005 184.693 15.458C184.693 16.8155 185.719 17.916 186.984 17.916Z" fill="white"/>
<path d="M198.648 17.916C199.913 17.916 200.939 16.8155 200.939 15.458C200.939 14.1005 199.913 13 198.648 13C197.383 13 196.357 14.1005 196.357 15.458C196.357 16.8155 197.383 17.916 198.648 17.916Z" fill="white"/>
<path d="M211.145 17.916C212.41 17.916 213.436 16.8155 213.436 15.458C213.436 14.1005 212.41 13 211.145 13C209.88 13 208.854 14.1005 208.854 15.458C208.854 16.8155 209.88 17.916 211.145 17.916Z" fill="white"/>
<path d="M186.984 30.822C188.249 30.822 189.275 29.7215 189.275 28.364C189.275 27.0065 188.249 25.906 186.984 25.906C185.719 25.906 184.693 27.0065 184.693 28.364C184.693 29.7215 185.719 30.822 186.984 30.822Z" fill="white"/>
<path d="M198.648 30.822C199.913 30.822 200.939 29.7215 200.939 28.364C200.939 27.0065 199.913 25.906 198.648 25.906C197.383 25.906 196.357 27.0065 196.357 28.364C196.357 29.7215 197.383 30.822 198.648 30.822Z" fill="white"/>
<path d="M211.145 30.822C212.41 30.822 213.436 29.7215 213.436 28.364C213.436 27.0065 212.41 25.906 211.145 25.906C209.88 25.906 208.854 27.0065 208.854 28.364C208.854 29.7215 209.88 30.822 211.145 30.822Z" fill="white"/>
<path d="M186.984 30.822C188.249 30.822 189.275 29.7215 189.275 28.364C189.275 27.0065 188.249 25.906 186.984 25.906C185.719 25.906 184.693 27.0065 184.693 28.364C184.693 29.7215 185.719 30.822 186.984 30.822Z" fill="white"/>
<path d="M198.648 30.822C199.913 30.822 200.939 29.7215 200.939 28.364C200.939 27.0065 199.913 25.906 198.648 25.906C197.383 25.906 196.357 27.0065 196.357 28.364C196.357 29.7215 197.383 30.822 198.648 30.822Z" fill="white"/>
<path d="M211.145 30.822C212.41 30.822 213.436 29.7215 213.436 28.364C213.436 27.0065 212.41 25.906 211.145 25.906C209.88 25.906 208.854 27.0065 208.854 28.364C208.854 29.7215 209.88 30.822 211.145 30.822Z" fill="white"/>
<path d="M186.984 43.728C188.249 43.728 189.275 42.6275 189.275 41.27C189.275 39.9125 188.249 38.812 186.984 38.812C185.719 38.812 184.693 39.9125 184.693 41.27C184.693 42.6275 185.719 43.728 186.984 43.728Z" fill="white"/>
<path d="M198.648 43.728C199.913 43.728 200.939 42.6275 200.939 41.27C200.939 39.9125 199.913 38.812 198.648 38.812C197.383 38.812 196.357 39.9125 196.357 41.27C196.357 42.6275 197.383 43.728 198.648 43.728Z" fill="white"/>
<path d="M211.145 43.728C212.41 43.728 213.436 42.6275 213.436 41.27C213.436 39.9125 212.41 38.812 211.145 38.812C209.88 38.812 208.854 39.9125 208.854 41.27C208.854 42.6275 209.88 43.728 211.145 43.728Z" fill="white"/>
<path d="M186.984 43.728C188.249 43.728 189.275 42.6275 189.275 41.27C189.275 39.9125 188.249 38.812 186.984 38.812C185.719 38.812 184.693 39.9125 184.693 41.27C184.693 42.6275 185.719 43.728 186.984 43.728Z" fill="white"/>
<path d="M198.648 43.728C199.913 43.728 200.939 42.6275 200.939 41.27C200.939 39.9125 199.913 38.812 198.648 38.812C197.383 38.812 196.357 39.9125 196.357 41.27C196.357 42.6275 197.383 43.728 198.648 43.728Z" fill="white"/>
<path d="M211.145 43.728C212.41 43.728 213.436 42.6275 213.436 41.27C213.436 39.9125 212.41 38.812 211.145 38.812C209.88 38.812 208.854 39.9125 208.854 41.27C208.854 42.6275 209.88 43.728 211.145 43.728Z" fill="white"/>
<path d="M150.291 3.72801C151.556 3.72801 152.582 2.62753 152.582 1.27001C152.582 -0.0875043 151.556 -1.18799 150.291 -1.18799C149.026 -1.18799 148 -0.0875043 148 1.27001C148 2.62753 149.026 3.72801 150.291 3.72801Z" fill="white"/>
<path d="M161.955 3.72801C163.22 3.72801 164.246 2.62753 164.246 1.27001C164.246 -0.0875043 163.22 -1.18799 161.955 -1.18799C160.69 -1.18799 159.664 -0.0875043 159.664 1.27001C159.664 2.62753 160.69 3.72801 161.955 3.72801Z" fill="white"/>
<path d="M174.452 3.72801C175.717 3.72801 176.743 2.62753 176.743 1.27001C176.743 -0.0875043 175.717 -1.18799 174.452 -1.18799C173.187 -1.18799 172.161 -0.0875043 172.161 1.27001C172.161 2.62753 173.187 3.72801 174.452 3.72801Z" fill="white"/>
<path d="M150.291 3.72801C151.556 3.72801 152.582 2.62753 152.582 1.27001C152.582 -0.0875043 151.556 -1.18799 150.291 -1.18799C149.026 -1.18799 148 -0.0875043 148 1.27001C148 2.62753 149.026 3.72801 150.291 3.72801Z" fill="white"/>
<path d="M161.955 3.72801C163.22 3.72801 164.246 2.62753 164.246 1.27001C164.246 -0.0875043 163.22 -1.18799 161.955 -1.18799C160.69 -1.18799 159.664 -0.0875043 159.664 1.27001C159.664 2.62753 160.69 3.72801 161.955 3.72801Z" fill="white"/>
<path d="M174.452 3.72801C175.717 3.72801 176.743 2.62753 176.743 1.27001C176.743 -0.0875043 175.717 -1.18799 174.452 -1.18799C173.187 -1.18799 172.161 -0.0875043 172.161 1.27001C172.161 2.62753 173.187 3.72801 174.452 3.72801Z" fill="white"/>
<path d="M186.984 3.72801C188.249 3.72801 189.275 2.62753 189.275 1.27001C189.275 -0.0875043 188.249 -1.18799 186.984 -1.18799C185.719 -1.18799 184.693 -0.0875043 184.693 1.27001C184.693 2.62753 185.719 3.72801 186.984 3.72801Z" fill="white"/>
<path d="M198.648 3.72801C199.913 3.72801 200.939 2.62753 200.939 1.27001C200.939 -0.0875043 199.913 -1.18799 198.648 -1.18799C197.383 -1.18799 196.357 -0.0875043 196.357 1.27001C196.357 2.62753 197.383 3.72801 198.648 3.72801Z" fill="white"/>
<path d="M211.145 3.72801C212.41 3.72801 213.436 2.62753 213.436 1.27001C213.436 -0.0875043 212.41 -1.18799 211.145 -1.18799C209.88 -1.18799 208.854 -0.0875043 208.854 1.27001C208.854 2.62753 209.88 3.72801 211.145 3.72801Z" fill="white"/>
<path d="M186.984 3.72801C188.249 3.72801 189.275 2.62753 189.275 1.27001C189.275 -0.0875043 188.249 -1.18799 186.984 -1.18799C185.719 -1.18799 184.693 -0.0875043 184.693 1.27001C184.693 2.62753 185.719 3.72801 186.984 3.72801Z" fill="white"/>
<path d="M198.648 3.72801C199.913 3.72801 200.939 2.62753 200.939 1.27001C200.939 -0.0875043 199.913 -1.18799 198.648 -1.18799C197.383 -1.18799 196.357 -0.0875043 196.357 1.27001C196.357 2.62753 197.383 3.72801 198.648 3.72801Z" fill="white"/>
<path d="M211.145 3.72801C212.41 3.72801 213.436 2.62753 213.436 1.27001C213.436 -0.0875043 212.41 -1.18799 211.145 -1.18799C209.88 -1.18799 208.854 -0.0875043 208.854 1.27001C208.854 2.62753 209.88 3.72801 211.145 3.72801Z" fill="white"/>
</g>
</g>
<defs>
<clipPath id="clip0_3401_2179">
<rect width="340" height="201" fill="white"/>
</clipPath>
</defs>
</svg>
