<svg width="328" height="193" viewBox="0 0 328 193" fill="none" xmlns="http://www.w3.org/2000/svg">
<g clip-path="url(#clip0_3401_1963)">
<path d="M293.1 117C292.8 117 292.4 117.1 292.1 117.3L259.1 137L257.9 141.1L280.2 128.1L280.9 129.3L257.5 142.9L263.7 144L297.1 123.9C297.5 123.6 297.8 123.2 298 122.7L299.5 117H293.1Z" fill="white"/>
<path d="M257.5 120.9L264.1 122L289 107.7C289.4 107.4 289.8 107 289.9 106.6L291.5 101H284.9C284.5 101 284.2 101.1 283.9 101.3L259.3 115.1L257.5 120.9Z" fill="white"/>
<path d="M257.5 99.9L264 101L281 90.7C281.4 90.4 281.8 90 281.9 89.6L283.5 84H276.9C276.5 84 276.2 84.1 275.9 84.3L259.2 94.2L257.5 99.9Z" fill="white"/>
<path d="M251.5 120.9L244.9 122L220 107.7C219.6 107.4 219.2 107 219.1 106.6L217.5 101H224.1C224.5 101 224.8 101.1 225.1 101.3L249.6 115.2L251.5 120.9Z" fill="white"/>
<path d="M251.5 98.9L245 100L228 89.7C227.6 89.4 227.2 89 227.1 88.6L225.5 83H232.1C232.5 83 232.8 83.1 233.1 83.3L249.8 93.2L251.5 98.9Z" fill="white"/>
<path d="M254.7 84.9L250.7 79.9L251.5 60.1C251.5 59.6 251.7 59.1 252 58.8L255.9 54.7L259 60.3C259.2 60.6 259.2 60.9 259.2 61.3L258.7 80.5L254.7 84.9Z" fill="white"/>
<path d="M254 76H256V193H254V76Z" fill="white"/>
<path d="M228.9 129.6L229.6 128.5L251.5 141.9L250 136.9L216.9 117.3C216.6 117.1 216.3 117 215.9 117H209.5L211 122.7C211.1 123.2 211.4 123.6 211.9 123.9L245.4 144L250.7 143L228.9 129.6Z" fill="white"/>
<path d="M228.7 151.1L229.4 150L251.4 163.7H251.5L249.5 157L211.1 134.3C210.7 134.1 210.3 134 209.9 134H202.5L204.3 140.5C204.5 141.1 204.8 141.5 205.3 141.8L244.1 165L249.4 164L228.7 151.1Z" fill="white"/>
<path d="M254 122L253.6 121.8L228.5 107.1L229.2 106L254 120.5L280.8 106L281.5 107.1L254 122Z" fill="white"/>
<path d="M254 102L253.6 101.8L228.5 87.1L229.2 86L254 100.5L280.8 86L281.5 87.1L254 102Z" fill="white"/>
<path d="M299.3 135C298.9 135 298.5 135.1 298.2 135.3L259.5 157.9L257.9 163.1L280.5 150.3L281.2 151.5L257.9 164.7L264.9 166L304 142.9C304.5 142.6 304.9 142.1 305 141.6L306.8 135H299.3Z" fill="white"/>
<g opacity="0.65">
<path d="M185.2 8.50001C186.415 8.50001 187.4 7.4255 187.4 6.10001C187.4 4.77453 186.415 3.70001 185.2 3.70001C183.985 3.70001 183 4.77453 183 6.10001C183 7.4255 183.985 8.50001 185.2 8.50001Z" fill="white"/>
<mask id="mask0_3401_1963" style="mask-type:luminance" maskUnits="userSpaceOnUse" x="183" y="3" width="5" height="6">
<path d="M185.2 8.50001C186.415 8.50001 187.4 7.4255 187.4 6.10001C187.4 4.77453 186.415 3.70001 185.2 3.70001C183.985 3.70001 183 4.77453 183 6.10001C183 7.4255 183.985 8.50001 185.2 8.50001Z" fill="white"/>
</mask>
<g mask="url(#mask0_3401_1963)">
<path d="M-90.1 -886.6H864.9V2759.3H-90.1V-886.6Z" fill="white"/>
<mask id="mask1_3401_1963" style="mask-type:luminance" maskUnits="userSpaceOnUse" x="-91" y="-887" width="956" height="3647">
<path d="M-90.1 -886.6H864.9V2759.3H-90.1V-886.6Z" fill="white"/>
</mask>
<g mask="url(#mask1_3401_1963)">
<path d="M180.5 1.29999H189.9V11H180.5V1.29999Z" fill="white"/>
</g>
</g>
</g>
<g opacity="0.65">
<path d="M196.5 8.50001C197.715 8.50001 198.7 7.4255 198.7 6.10001C198.7 4.77453 197.715 3.70001 196.5 3.70001C195.285 3.70001 194.3 4.77453 194.3 6.10001C194.3 7.4255 195.285 8.50001 196.5 8.50001Z" fill="white"/>
<mask id="mask2_3401_1963" style="mask-type:luminance" maskUnits="userSpaceOnUse" x="194" y="3" width="5" height="6">
<path d="M196.5 8.50001C197.715 8.50001 198.7 7.4255 198.7 6.10001C198.7 4.77453 197.715 3.70001 196.5 3.70001C195.285 3.70001 194.3 4.77453 194.3 6.10001C194.3 7.4255 195.285 8.50001 196.5 8.50001Z" fill="white"/>
</mask>
<g mask="url(#mask2_3401_1963)">
<path d="M-90.1 -886.6H864.9V2759.3H-90.1V-886.6Z" fill="white"/>
<mask id="mask3_3401_1963" style="mask-type:luminance" maskUnits="userSpaceOnUse" x="-91" y="-887" width="956" height="3647">
<path d="M-90.1 -886.6H864.9V2759.3H-90.1V-886.6Z" fill="white"/>
</mask>
<g mask="url(#mask3_3401_1963)">
<path d="M191.8 1.29999H201.2V11H191.8V1.29999Z" fill="white"/>
</g>
</g>
</g>
<g opacity="0.65">
<path d="M208.7 8.50001C209.915 8.50001 210.9 7.4255 210.9 6.10001C210.9 4.77453 209.915 3.70001 208.7 3.70001C207.485 3.70001 206.5 4.77453 206.5 6.10001C206.5 7.4255 207.485 8.50001 208.7 8.50001Z" fill="white"/>
<mask id="mask4_3401_1963" style="mask-type:luminance" maskUnits="userSpaceOnUse" x="206" y="3" width="5" height="6">
<path d="M208.7 8.50001C209.915 8.50001 210.9 7.4255 210.9 6.10001C210.9 4.77453 209.915 3.70001 208.7 3.70001C207.485 3.70001 206.5 4.77453 206.5 6.10001C206.5 7.4255 207.485 8.50001 208.7 8.50001Z" fill="white"/>
</mask>
<g mask="url(#mask4_3401_1963)">
<path d="M-90.1 -886.6H864.9V2759.3H-90.1V-886.6Z" fill="white"/>
<mask id="mask5_3401_1963" style="mask-type:luminance" maskUnits="userSpaceOnUse" x="-91" y="-887" width="956" height="3647">
<path d="M-90.1 -886.6H864.9V2759.3H-90.1V-886.6Z" fill="white"/>
</mask>
<g mask="url(#mask5_3401_1963)">
<path d="M204 1.29999H213.4V11H204V1.29999Z" fill="white"/>
</g>
</g>
</g>
<g opacity="0.65">
<path d="M185.2 8.50001C186.415 8.50001 187.4 7.4255 187.4 6.10001C187.4 4.77453 186.415 3.70001 185.2 3.70001C183.985 3.70001 183 4.77453 183 6.10001C183 7.4255 183.985 8.50001 185.2 8.50001Z" fill="white"/>
<mask id="mask6_3401_1963" style="mask-type:luminance" maskUnits="userSpaceOnUse" x="183" y="3" width="5" height="6">
<path d="M185.2 8.50001C186.415 8.50001 187.4 7.4255 187.4 6.10001C187.4 4.77453 186.415 3.70001 185.2 3.70001C183.985 3.70001 183 4.77453 183 6.10001C183 7.4255 183.985 8.50001 185.2 8.50001Z" fill="white"/>
</mask>
<g mask="url(#mask6_3401_1963)">
<path d="M-90.1 -886.6H864.9V2759.3H-90.1V-886.6Z" fill="white"/>
<mask id="mask7_3401_1963" style="mask-type:luminance" maskUnits="userSpaceOnUse" x="-91" y="-887" width="956" height="3647">
<path d="M-90.1 -886.6H864.9V2759.3H-90.1V-886.6Z" fill="white"/>
</mask>
<g mask="url(#mask7_3401_1963)">
<path d="M180.5 1.29999H189.9V11H180.5V1.29999Z" fill="white"/>
</g>
</g>
</g>
<g opacity="0.65">
<path d="M196.5 8.50001C197.715 8.50001 198.7 7.4255 198.7 6.10001C198.7 4.77453 197.715 3.70001 196.5 3.70001C195.285 3.70001 194.3 4.77453 194.3 6.10001C194.3 7.4255 195.285 8.50001 196.5 8.50001Z" fill="white"/>
<mask id="mask8_3401_1963" style="mask-type:luminance" maskUnits="userSpaceOnUse" x="194" y="3" width="5" height="6">
<path d="M196.5 8.50001C197.715 8.50001 198.7 7.4255 198.7 6.10001C198.7 4.77453 197.715 3.70001 196.5 3.70001C195.285 3.70001 194.3 4.77453 194.3 6.10001C194.3 7.4255 195.285 8.50001 196.5 8.50001Z" fill="white"/>
</mask>
<g mask="url(#mask8_3401_1963)">
<path d="M-90.1 -886.6H864.9V2759.3H-90.1V-886.6Z" fill="white"/>
<mask id="mask9_3401_1963" style="mask-type:luminance" maskUnits="userSpaceOnUse" x="-91" y="-887" width="956" height="3647">
<path d="M-90.1 -886.6H864.9V2759.3H-90.1V-886.6Z" fill="white"/>
</mask>
<g mask="url(#mask9_3401_1963)">
<path d="M191.8 1.29999H201.2V11H191.8V1.29999Z" fill="white"/>
</g>
</g>
</g>
<g opacity="0.65">
<path d="M208.7 8.50001C209.915 8.50001 210.9 7.4255 210.9 6.10001C210.9 4.77453 209.915 3.70001 208.7 3.70001C207.485 3.70001 206.5 4.77453 206.5 6.10001C206.5 7.4255 207.485 8.50001 208.7 8.50001Z" fill="white"/>
<mask id="mask10_3401_1963" style="mask-type:luminance" maskUnits="userSpaceOnUse" x="206" y="3" width="5" height="6">
<path d="M208.7 8.50001C209.915 8.50001 210.9 7.4255 210.9 6.10001C210.9 4.77453 209.915 3.70001 208.7 3.70001C207.485 3.70001 206.5 4.77453 206.5 6.10001C206.5 7.4255 207.485 8.50001 208.7 8.50001Z" fill="white"/>
</mask>
<g mask="url(#mask10_3401_1963)">
<path d="M-90.1 -886.6H864.9V2759.3H-90.1V-886.6Z" fill="white"/>
<mask id="mask11_3401_1963" style="mask-type:luminance" maskUnits="userSpaceOnUse" x="-91" y="-887" width="956" height="3647">
<path d="M-90.1 -886.6H864.9V2759.3H-90.1V-886.6Z" fill="white"/>
</mask>
<g mask="url(#mask11_3401_1963)">
<path d="M204 1.29999H213.4V11H204V1.29999Z" fill="white"/>
</g>
</g>
</g>
<g opacity="0.65">
<path d="M185.2 21C186.415 21 187.4 19.9255 187.4 18.6C187.4 17.2745 186.415 16.2 185.2 16.2C183.985 16.2 183 17.2745 183 18.6C183 19.9255 183.985 21 185.2 21Z" fill="white"/>
<mask id="mask12_3401_1963" style="mask-type:luminance" maskUnits="userSpaceOnUse" x="183" y="16" width="5" height="5">
<path d="M185.2 21C186.415 21 187.4 19.9255 187.4 18.6C187.4 17.2745 186.415 16.2 185.2 16.2C183.985 16.2 183 17.2745 183 18.6C183 19.9255 183.985 21 185.2 21Z" fill="white"/>
</mask>
<g mask="url(#mask12_3401_1963)">
<path d="M-90.1 -886.6H864.9V2759.3H-90.1V-886.6Z" fill="white"/>
<mask id="mask13_3401_1963" style="mask-type:luminance" maskUnits="userSpaceOnUse" x="-91" y="-887" width="956" height="3647">
<path d="M-90.1 -886.6H864.9V2759.3H-90.1V-886.6Z" fill="white"/>
</mask>
<g mask="url(#mask13_3401_1963)">
<path d="M180.5 13.7H189.9V23.4H180.5V13.7Z" fill="white"/>
</g>
</g>
</g>
<g opacity="0.65">
<path d="M196.5 21C197.715 21 198.7 19.9255 198.7 18.6C198.7 17.2745 197.715 16.2 196.5 16.2C195.285 16.2 194.3 17.2745 194.3 18.6C194.3 19.9255 195.285 21 196.5 21Z" fill="white"/>
<mask id="mask14_3401_1963" style="mask-type:luminance" maskUnits="userSpaceOnUse" x="194" y="16" width="5" height="5">
<path d="M196.5 21C197.715 21 198.7 19.9255 198.7 18.6C198.7 17.2745 197.715 16.2 196.5 16.2C195.285 16.2 194.3 17.2745 194.3 18.6C194.3 19.9255 195.285 21 196.5 21Z" fill="white"/>
</mask>
<g mask="url(#mask14_3401_1963)">
<path d="M-90.1 -886.6H864.9V2759.3H-90.1V-886.6Z" fill="white"/>
<mask id="mask15_3401_1963" style="mask-type:luminance" maskUnits="userSpaceOnUse" x="-91" y="-887" width="956" height="3647">
<path d="M-90.1 -886.6H864.9V2759.3H-90.1V-886.6Z" fill="white"/>
</mask>
<g mask="url(#mask15_3401_1963)">
<path d="M191.8 13.7H201.2V23.4H191.8V13.7Z" fill="white"/>
</g>
</g>
</g>
<g opacity="0.65">
<path d="M208.7 21C209.915 21 210.9 19.9255 210.9 18.6C210.9 17.2745 209.915 16.2 208.7 16.2C207.485 16.2 206.5 17.2745 206.5 18.6C206.5 19.9255 207.485 21 208.7 21Z" fill="white"/>
<mask id="mask16_3401_1963" style="mask-type:luminance" maskUnits="userSpaceOnUse" x="206" y="16" width="5" height="5">
<path d="M208.7 21C209.915 21 210.9 19.9255 210.9 18.6C210.9 17.2745 209.915 16.2 208.7 16.2C207.485 16.2 206.5 17.2745 206.5 18.6C206.5 19.9255 207.485 21 208.7 21Z" fill="white"/>
</mask>
<g mask="url(#mask16_3401_1963)">
<path d="M-90.1 -886.6H864.9V2759.3H-90.1V-886.6Z" fill="white"/>
<mask id="mask17_3401_1963" style="mask-type:luminance" maskUnits="userSpaceOnUse" x="-91" y="-887" width="956" height="3647">
<path d="M-90.1 -886.6H864.9V2759.3H-90.1V-886.6Z" fill="white"/>
</mask>
<g mask="url(#mask17_3401_1963)">
<path d="M204 13.7H213.4V23.4H204V13.7Z" fill="white"/>
</g>
</g>
</g>
<g opacity="0.65">
<path d="M185.2 21C186.415 21 187.4 19.9255 187.4 18.6C187.4 17.2745 186.415 16.2 185.2 16.2C183.985 16.2 183 17.2745 183 18.6C183 19.9255 183.985 21 185.2 21Z" fill="white"/>
<mask id="mask18_3401_1963" style="mask-type:luminance" maskUnits="userSpaceOnUse" x="183" y="16" width="5" height="5">
<path d="M185.2 21C186.415 21 187.4 19.9255 187.4 18.6C187.4 17.2745 186.415 16.2 185.2 16.2C183.985 16.2 183 17.2745 183 18.6C183 19.9255 183.985 21 185.2 21Z" fill="white"/>
</mask>
<g mask="url(#mask18_3401_1963)">
<path d="M-90.1 -886.6H864.9V2759.3H-90.1V-886.6Z" fill="white"/>
<mask id="mask19_3401_1963" style="mask-type:luminance" maskUnits="userSpaceOnUse" x="-91" y="-887" width="956" height="3647">
<path d="M-90.1 -886.6H864.9V2759.3H-90.1V-886.6Z" fill="white"/>
</mask>
<g mask="url(#mask19_3401_1963)">
<path d="M180.5 13.7H189.9V23.4H180.5V13.7Z" fill="white"/>
</g>
</g>
</g>
<g opacity="0.65">
<path d="M196.5 21C197.715 21 198.7 19.9255 198.7 18.6C198.7 17.2745 197.715 16.2 196.5 16.2C195.285 16.2 194.3 17.2745 194.3 18.6C194.3 19.9255 195.285 21 196.5 21Z" fill="white"/>
<mask id="mask20_3401_1963" style="mask-type:luminance" maskUnits="userSpaceOnUse" x="194" y="16" width="5" height="5">
<path d="M196.5 21C197.715 21 198.7 19.9255 198.7 18.6C198.7 17.2745 197.715 16.2 196.5 16.2C195.285 16.2 194.3 17.2745 194.3 18.6C194.3 19.9255 195.285 21 196.5 21Z" fill="white"/>
</mask>
<g mask="url(#mask20_3401_1963)">
<path d="M-90.1 -886.6H864.9V2759.3H-90.1V-886.6Z" fill="white"/>
<mask id="mask21_3401_1963" style="mask-type:luminance" maskUnits="userSpaceOnUse" x="-91" y="-887" width="956" height="3647">
<path d="M-90.1 -886.6H864.9V2759.3H-90.1V-886.6Z" fill="white"/>
</mask>
<g mask="url(#mask21_3401_1963)">
<path d="M191.8 13.7H201.2V23.4H191.8V13.7Z" fill="white"/>
</g>
</g>
</g>
<g opacity="0.65">
<path d="M208.7 21C209.915 21 210.9 19.9255 210.9 18.6C210.9 17.2745 209.915 16.2 208.7 16.2C207.485 16.2 206.5 17.2745 206.5 18.6C206.5 19.9255 207.485 21 208.7 21Z" fill="white"/>
<mask id="mask22_3401_1963" style="mask-type:luminance" maskUnits="userSpaceOnUse" x="206" y="16" width="5" height="5">
<path d="M208.7 21C209.915 21 210.9 19.9255 210.9 18.6C210.9 17.2745 209.915 16.2 208.7 16.2C207.485 16.2 206.5 17.2745 206.5 18.6C206.5 19.9255 207.485 21 208.7 21Z" fill="white"/>
</mask>
<g mask="url(#mask22_3401_1963)">
<path d="M-90.1 -886.6H864.9V2759.3H-90.1V-886.6Z" fill="white"/>
<mask id="mask23_3401_1963" style="mask-type:luminance" maskUnits="userSpaceOnUse" x="-91" y="-887" width="956" height="3647">
<path d="M-90.1 -886.6H864.9V2759.3H-90.1V-886.6Z" fill="white"/>
</mask>
<g mask="url(#mask23_3401_1963)">
<path d="M204 13.7H213.4V23.4H204V13.7Z" fill="white"/>
</g>
</g>
</g>
<g opacity="0.65">
<path d="M185.2 33.4C186.415 33.4 187.4 32.3255 187.4 31C187.4 29.6745 186.415 28.6 185.2 28.6C183.985 28.6 183 29.6745 183 31C183 32.3255 183.985 33.4 185.2 33.4Z" fill="white"/>
<mask id="mask24_3401_1963" style="mask-type:luminance" maskUnits="userSpaceOnUse" x="183" y="28" width="5" height="6">
<path d="M185.2 33.4C186.415 33.4 187.4 32.3255 187.4 31C187.4 29.6745 186.415 28.6 185.2 28.6C183.985 28.6 183 29.6745 183 31C183 32.3255 183.985 33.4 185.2 33.4Z" fill="white"/>
</mask>
<g mask="url(#mask24_3401_1963)">
<path d="M-90.1 -886.6H864.9V2759.3H-90.1V-886.6Z" fill="white"/>
<mask id="mask25_3401_1963" style="mask-type:luminance" maskUnits="userSpaceOnUse" x="-91" y="-887" width="956" height="3647">
<path d="M-90.1 -886.6H864.9V2759.3H-90.1V-886.6Z" fill="white"/>
</mask>
<g mask="url(#mask25_3401_1963)">
<path d="M180.5 26.1H189.9V35.8H180.5V26.1Z" fill="white"/>
</g>
</g>
</g>
<g opacity="0.65">
<path d="M196.5 33.4C197.715 33.4 198.7 32.3255 198.7 31C198.7 29.6745 197.715 28.6 196.5 28.6C195.285 28.6 194.3 29.6745 194.3 31C194.3 32.3255 195.285 33.4 196.5 33.4Z" fill="white"/>
<mask id="mask26_3401_1963" style="mask-type:luminance" maskUnits="userSpaceOnUse" x="194" y="28" width="5" height="6">
<path d="M196.5 33.4C197.715 33.4 198.7 32.3255 198.7 31C198.7 29.6745 197.715 28.6 196.5 28.6C195.285 28.6 194.3 29.6745 194.3 31C194.3 32.3255 195.285 33.4 196.5 33.4Z" fill="white"/>
</mask>
<g mask="url(#mask26_3401_1963)">
<path d="M-90.1 -886.6H864.9V2759.3H-90.1V-886.6Z" fill="white"/>
<mask id="mask27_3401_1963" style="mask-type:luminance" maskUnits="userSpaceOnUse" x="-91" y="-887" width="956" height="3647">
<path d="M-90.1 -886.6H864.9V2759.3H-90.1V-886.6Z" fill="white"/>
</mask>
<g mask="url(#mask27_3401_1963)">
<path d="M191.8 26.1H201.2V35.8H191.8V26.1Z" fill="white"/>
</g>
</g>
</g>
<g opacity="0.65">
<path d="M208.7 33.4C209.915 33.4 210.9 32.3255 210.9 31C210.9 29.6745 209.915 28.6 208.7 28.6C207.485 28.6 206.5 29.6745 206.5 31C206.5 32.3255 207.485 33.4 208.7 33.4Z" fill="white"/>
<mask id="mask28_3401_1963" style="mask-type:luminance" maskUnits="userSpaceOnUse" x="206" y="28" width="5" height="6">
<path d="M208.7 33.4C209.915 33.4 210.9 32.3255 210.9 31C210.9 29.6745 209.915 28.6 208.7 28.6C207.485 28.6 206.5 29.6745 206.5 31C206.5 32.3255 207.485 33.4 208.7 33.4Z" fill="white"/>
</mask>
<g mask="url(#mask28_3401_1963)">
<path d="M-90.1 -886.6H864.9V2759.3H-90.1V-886.6Z" fill="white"/>
<mask id="mask29_3401_1963" style="mask-type:luminance" maskUnits="userSpaceOnUse" x="-91" y="-887" width="956" height="3647">
<path d="M-90.1 -886.6H864.9V2759.3H-90.1V-886.6Z" fill="white"/>
</mask>
<g mask="url(#mask29_3401_1963)">
<path d="M204 26.1H213.4V35.8H204V26.1Z" fill="white"/>
</g>
</g>
</g>
<g opacity="0.65">
<path d="M185.2 33.4C186.415 33.4 187.4 32.3255 187.4 31C187.4 29.6745 186.415 28.6 185.2 28.6C183.985 28.6 183 29.6745 183 31C183 32.3255 183.985 33.4 185.2 33.4Z" fill="white"/>
<mask id="mask30_3401_1963" style="mask-type:luminance" maskUnits="userSpaceOnUse" x="183" y="28" width="5" height="6">
<path d="M185.2 33.4C186.415 33.4 187.4 32.3255 187.4 31C187.4 29.6745 186.415 28.6 185.2 28.6C183.985 28.6 183 29.6745 183 31C183 32.3255 183.985 33.4 185.2 33.4Z" fill="white"/>
</mask>
<g mask="url(#mask30_3401_1963)">
<path d="M-90.1 -886.6H864.9V2759.3H-90.1V-886.6Z" fill="white"/>
<mask id="mask31_3401_1963" style="mask-type:luminance" maskUnits="userSpaceOnUse" x="-91" y="-887" width="956" height="3647">
<path d="M-90.1 -886.6H864.9V2759.3H-90.1V-886.6Z" fill="white"/>
</mask>
<g mask="url(#mask31_3401_1963)">
<path d="M180.5 26.1H189.9V35.8H180.5V26.1Z" fill="white"/>
</g>
</g>
</g>
<g opacity="0.65">
<path d="M196.5 33.4C197.715 33.4 198.7 32.3255 198.7 31C198.7 29.6745 197.715 28.6 196.5 28.6C195.285 28.6 194.3 29.6745 194.3 31C194.3 32.3255 195.285 33.4 196.5 33.4Z" fill="white"/>
<mask id="mask32_3401_1963" style="mask-type:luminance" maskUnits="userSpaceOnUse" x="194" y="28" width="5" height="6">
<path d="M196.5 33.4C197.715 33.4 198.7 32.3255 198.7 31C198.7 29.6745 197.715 28.6 196.5 28.6C195.285 28.6 194.3 29.6745 194.3 31C194.3 32.3255 195.285 33.4 196.5 33.4Z" fill="white"/>
</mask>
<g mask="url(#mask32_3401_1963)">
<path d="M-90.1 -886.6H864.9V2759.3H-90.1V-886.6Z" fill="white"/>
<mask id="mask33_3401_1963" style="mask-type:luminance" maskUnits="userSpaceOnUse" x="-91" y="-887" width="956" height="3647">
<path d="M-90.1 -886.6H864.9V2759.3H-90.1V-886.6Z" fill="white"/>
</mask>
<g mask="url(#mask33_3401_1963)">
<path d="M191.8 26.1H201.2V35.8H191.8V26.1Z" fill="white"/>
</g>
</g>
</g>
<g opacity="0.65">
<path d="M208.7 33.4C209.915 33.4 210.9 32.3255 210.9 31C210.9 29.6745 209.915 28.6 208.7 28.6C207.485 28.6 206.5 29.6745 206.5 31C206.5 32.3255 207.485 33.4 208.7 33.4Z" fill="white"/>
<mask id="mask34_3401_1963" style="mask-type:luminance" maskUnits="userSpaceOnUse" x="206" y="28" width="5" height="6">
<path d="M208.7 33.4C209.915 33.4 210.9 32.3255 210.9 31C210.9 29.6745 209.915 28.6 208.7 28.6C207.485 28.6 206.5 29.6745 206.5 31C206.5 32.3255 207.485 33.4 208.7 33.4Z" fill="white"/>
</mask>
<g mask="url(#mask34_3401_1963)">
<path d="M-90.1 -886.6H864.9V2759.3H-90.1V-886.6Z" fill="white"/>
<mask id="mask35_3401_1963" style="mask-type:luminance" maskUnits="userSpaceOnUse" x="-91" y="-887" width="956" height="3647">
<path d="M-90.1 -886.6H864.9V2759.3H-90.1V-886.6Z" fill="white"/>
</mask>
<g mask="url(#mask35_3401_1963)">
<path d="M204 26.1H213.4V35.8H204V26.1Z" fill="white"/>
</g>
</g>
</g>
</g>
<defs>
<clipPath id="clip0_3401_1963">
<rect width="327" height="193" fill="white" transform="translate(0.5)"/>
</clipPath>
</defs>
</svg>
