<svg width="230" height="144" viewBox="0 0 230 144" fill="none" xmlns="http://www.w3.org/2000/svg">
<rect width="208.547" height="53.3207" rx="7.41363" transform="matrix(0.995639 0.101619 0.16277 0.985856 12.915 69.897)" fill="#4D4FB1"/>
<ellipse rx="20.3544" ry="21.8974" transform="matrix(0.994816 0.125782 0.138729 0.987585 24.1686 24.8943)" fill="#C98BDB"/>
<path d="M19.497 33.0756L17.7874 17.097C17.7618 16.8574 17.7352 16.6088 17.7742 16.3768C17.8052 16.1444 17.9071 15.9401 18.0682 15.7872C18.2293 15.6344 18.4433 15.539 18.6857 15.5119C18.9472 15.4815 20.1213 15.6206 20.3709 15.6502L26.8423 16.4169C27.0919 16.4465 27.3508 16.4771 27.607 16.5688C27.8619 16.6527 28.1029 16.8 28.3028 16.9941C28.5026 17.1882 28.6533 17.4213 28.7377 17.6669C28.829 17.9231 28.8556 18.1716 28.8812 18.4113L30.5908 34.3899M19.497 33.0756L30.5908 34.3899M19.497 33.0756L17.648 32.8565C16.6311 32.736 15.7135 31.8385 15.6091 30.8621L15.0392 25.5359C15.0039 25.2906 14.9995 25.0487 15.0261 24.8157C15.0651 24.5836 15.1616 24.376 15.3192 24.2281C15.4851 24.0725 15.7038 23.9845 15.9468 23.9519C16.1898 23.9193 16.4486 23.95 16.6982 23.9796L18.5472 24.1986L19.497 33.0756ZM30.5908 34.3899L29.3561 22.8498L31.205 23.0689C31.4585 23.0902 31.7153 23.1412 31.9698 23.2208C32.226 23.3125 32.4695 23.4553 32.6632 23.6448C32.8671 23.8442 33.011 24.0804 33.1014 24.3277C33.1917 24.5751 33.2174 24.8147 33.244 25.0633L34.0987 33.0526C34.1491 33.5234 34.0026 33.9519 33.6915 34.2438C33.3804 34.5357 32.9301 34.667 32.4397 34.6089L30.5908 34.3899ZM21.6753 19.3105L25.3732 19.7486M22.0552 22.8613L25.7531 23.2994M22.4351 26.4121L26.133 26.8502M22.815 29.9629L26.5129 30.401" stroke="white" stroke-width="1.83976" stroke-linecap="round" stroke-linejoin="round"/>
<path d="M19.497 33.0756L17.7874 17.097C17.7618 16.8574 17.7352 16.6088 17.7742 16.3768C17.8052 16.1444 17.9071 15.9401 18.0682 15.7872C18.2293 15.6344 18.4433 15.539 18.6857 15.5119C18.9472 15.4815 20.1213 15.6206 20.3709 15.6502L26.8423 16.4169C27.0919 16.4465 27.3508 16.4771 27.607 16.5688C27.8619 16.6527 28.1029 16.8 28.3028 16.9941C28.5026 17.1882 28.6533 17.4213 28.7377 17.6669C28.829 17.9231 28.8556 18.1716 28.8812 18.4113L30.5908 34.3899M19.497 33.0756L30.5908 34.3899M19.497 33.0756L17.648 32.8565C16.6311 32.736 15.7135 31.8385 15.6091 30.8621L15.0392 25.5359C15.0039 25.2906 14.9995 25.0487 15.0261 24.8157C15.0651 24.5836 15.1616 24.376 15.3192 24.2281C15.4851 24.0725 15.7038 23.9845 15.9468 23.9519C16.1898 23.9193 16.4486 23.95 16.6982 23.9796L18.5472 24.1986L19.497 33.0756ZM30.5908 34.3899L29.3561 22.8498L31.205 23.0689C31.4585 23.0902 31.7153 23.1412 31.9698 23.2208C32.226 23.3125 32.4695 23.4553 32.6632 23.6448C32.8671 23.8442 33.011 24.0804 33.1014 24.3277C33.1917 24.5751 33.2174 24.8147 33.244 25.0633L34.0987 33.0526C34.1491 33.5234 34.0026 33.9519 33.6915 34.2438C33.3804 34.5357 32.9301 34.667 32.4397 34.6089L30.5908 34.3899ZM21.6753 19.3105L25.3732 19.7486M22.0552 22.8613L25.7531 23.2994M22.4351 26.4121L26.133 26.8502M22.815 29.9629L26.5129 30.401" stroke="white" stroke-width="1.83976" stroke-linecap="round" stroke-linejoin="round"/>
<path d="M60.8379 33.1378C61.6171 33.521 62.4905 33.837 63.5815 33.9572C65.5109 34.1699 66.8177 33.3316 66.5414 31.5691C66.298 30.0171 65.1825 29.1574 63.7029 28.4773L62.4864 27.8908C61.7071 27.5076 61.1571 27.0851 61.0478 26.388C60.9096 25.5068 61.6768 25.2294 62.5949 25.3306C63.6061 25.4421 64.5338 25.8545 65.1584 26.169L64.9604 24.9063C64.2364 24.5421 63.4051 24.2437 62.4205 24.1352C60.5976 23.9342 59.4135 24.7214 59.6672 26.3392C59.8961 27.7992 60.9439 28.5609 62.2402 29.1562L63.4813 29.7325C64.3291 30.1361 65.0226 30.6391 65.1566 31.494C65.3216 32.5463 64.4562 32.8645 63.3918 32.7472C62.3273 32.6298 61.2932 32.2056 60.6399 31.8751L60.8379 33.1378ZM71.9465 27.9771L70.0584 29.6948C69.7732 29.9607 69.5187 30.2558 69.2909 30.5538L68.4081 24.9244L67.1307 24.7836L68.6364 34.3851L69.9138 34.5259L69.5136 31.9743L70.5491 30.9898L73.2136 34.8896L74.5974 35.0422L71.3884 30.2551L73.5166 28.1501L71.9465 27.9771ZM78.4055 31.7911C78.2478 32.5363 78.1075 33.3093 78.0051 34.0735C77.6551 33.2594 77.2765 32.4293 76.8621 31.621L75.1828 28.3338L73.7325 28.1739L77.5215 35.3257L77.3229 36.144C77.1833 36.6715 76.8642 36.8043 76.2787 36.7398L75.4937 36.6532L75.6649 37.7449L76.6096 37.8491C77.8869 37.9898 78.3908 37.4508 78.6007 36.6209L80.5317 28.9234L79.0947 28.765L78.4055 31.7911ZM91.1234 31.3187L86.6261 30.823L86.0053 26.864L84.6348 26.713L86.1404 36.3145L87.5109 36.4656L86.8138 32.0199L91.3111 32.5156L92.0083 36.9613L93.3787 37.1123L91.8731 27.5108L90.5026 27.3598L91.1234 31.3187ZM95.6504 28.5864C95.5762 28.1129 95.15 27.7298 94.6444 27.6741C94.1255 27.6169 93.7932 27.9163 93.8675 28.3898C93.9397 28.8502 94.3812 29.2479 94.9001 29.3051C95.4058 29.3608 95.7226 29.0467 95.6504 28.5864ZM94.44 30.4564L95.7173 30.5972L96.7981 37.4892L95.5208 37.3484L94.44 30.4564ZM100.912 31.0405C98.8629 30.8146 97.4385 31.8209 97.7829 34.0174C98.0985 36.0298 99.7796 37.4947 101.656 37.7015C102.255 37.7675 102.726 37.6903 103.166 37.4932L103.335 38.5717C103.449 39.2951 103.091 39.6822 102.332 39.5986L100.257 39.3698L100.43 40.4746L102.506 40.7034C103.929 40.8604 104.827 40.2484 104.586 38.7095L103.513 31.8701C102.677 31.4548 101.803 31.1388 100.912 31.0405ZM99.0869 34.1612C98.8538 32.6749 99.7188 32.0206 101.089 32.1716C101.528 32.22 101.969 32.359 102.362 32.5316L102.966 36.3854C102.562 36.5606 102.09 36.6379 101.572 36.5807C100.401 36.4516 99.3138 35.608 99.0869 34.1612ZM108.802 31.9102C108.044 31.8266 107.357 32.0353 106.914 32.3742L106.402 29.1123L105.125 28.9715L106.631 38.573L107.908 38.7138L107.091 33.5053C107.497 33.1752 108.062 32.9402 108.767 33.0179C109.565 33.1059 110.267 33.6615 110.419 34.6348L111.115 39.0673L112.392 39.2081L111.687 34.7098C111.435 33.1052 110.239 32.0686 108.802 31.9102ZM119.178 30.5205L116.091 30.1802L117.597 39.7818L118.967 39.9328L118.412 36.3947L120.129 36.5839C122.151 36.8068 123.572 35.9423 123.26 33.9562C122.945 31.9439 121.2 30.7434 119.178 30.5205ZM118.225 35.1978L117.651 31.5414L119.315 31.7247C120.579 31.864 121.657 32.487 121.863 33.8022C122.065 35.0912 121.152 35.5205 119.888 35.3811L118.225 35.1978ZM128.832 41.0201L130.492 34.4302L129.082 34.2747L128.379 37.2994C128.197 38.0548 128.083 38.8308 127.967 39.5935C127.617 38.7794 127.239 37.9492 126.822 37.1278L125.116 33.8377L123.693 33.6808L127.515 40.8749L128.832 41.0201ZM135.674 35.0014L133.532 34.7652L133.235 32.8712L131.957 32.7304L132.254 34.6244L130.844 34.469L131.015 35.5607L132.425 35.7161L133.021 39.5173C133.217 40.7668 134.061 41.7257 135.737 41.9105C136.07 41.9472 136.419 41.921 136.752 41.8803L136.577 40.7623C136.206 40.8118 135.895 40.8292 135.629 40.7999C134.79 40.7075 134.392 40.2499 134.286 39.5791L133.703 35.8569L135.845 36.093L135.674 35.0014ZM141.463 32.9769L140.093 32.8258L141.598 42.4273L147.812 43.1122L147.624 41.9153L142.781 41.3815L141.463 32.9769ZM152.228 36.826L150.086 36.5899L149.789 34.6959L148.511 34.5551L148.808 36.4491L147.398 36.2937L147.569 37.3853L148.98 37.5408L149.576 41.3419C149.772 42.5915 150.615 43.5504 152.292 43.7352C152.624 43.7719 152.973 43.7457 153.307 43.7049L153.131 42.5869C152.76 42.6365 152.449 42.6539 152.183 42.6246C151.344 42.5322 150.946 42.0746 150.841 41.4038L150.257 37.6816L152.399 37.9177L152.228 36.826ZM158.213 37.7183C157.71 37.4303 157.197 37.2445 156.611 37.1799C154.682 36.9673 153.397 38.1957 153.735 40.3528C154.103 42.694 155.95 44.1385 157.88 44.3512C158.838 44.4568 159.696 44.3446 160.468 44.0936L159.028 34.9129L157.751 34.7721L158.213 37.7183ZM157.609 43.2098C156.385 43.0748 155.283 42.0486 155.039 40.4965C154.788 38.8919 155.658 38.1864 156.895 38.3228C157.401 38.3785 157.912 38.5512 158.386 38.8232L159.062 43.1373C158.646 43.2336 158.155 43.2699 157.609 43.2098ZM163.267 44.945C163.813 45.0052 164.152 44.6677 164.068 44.1285C163.985 43.6024 163.526 43.1769 162.981 43.1168C162.422 43.0552 162.096 43.3941 162.178 43.9202C162.263 44.4595 162.709 44.8834 163.267 44.945Z" fill="white"/>
<path d="M36.7727 104.622L32.5132 98.6422L32.3784 97.8839L32.7565 97.9179C33.3638 97.9726 33.8634 97.9611 34.2555 97.8833C34.659 97.8066 34.9576 97.6469 35.1512 97.4043C35.3449 97.1616 35.4237 96.8126 35.3879 96.3571L32.0536 96.0569L31.8575 94.9538L35.1746 95.2525C35.0188 94.8201 34.7971 94.461 34.5095 94.175C34.2198 93.8776 33.8575 93.6471 33.4226 93.4836C32.9991 93.3211 32.4952 93.2135 31.9108 93.1609L31.5327 93.1269L31.3366 92.0238L38.452 92.6644L38.6481 93.7675L35.3997 93.475C35.7021 93.7171 35.9658 93.9952 36.1907 94.3094C36.4157 94.6236 36.5869 94.9839 36.7042 95.3902L38.9729 95.5945L39.169 96.6975L36.9347 96.4964C37.0036 97.3279 36.7992 97.954 36.3215 98.3746C35.8532 98.7847 35.172 99.0117 34.2779 99.0555L38.5257 104.78L36.7727 104.622ZM47.3882 97.6241C46.0476 97.5034 44.8849 97.9075 44.2051 98.7452C43.9972 96.1486 45.2221 94.953 47.6455 95.1711C48.7283 95.2686 49.8834 95.6779 50.5057 96.0392L50.1104 93.8158C49.3647 93.4264 48.2765 93.108 47.1422 93.0059C43.3611 92.6654 41.2506 94.9685 42.0197 99.2946C42.7245 103.259 45.2123 105.552 48.3403 105.834C50.8496 106.059 52.643 104.542 52.1895 101.991C51.7514 99.5264 49.8287 97.8438 47.3882 97.6241ZM47.9321 103.728C46.4712 103.596 45.1886 102.565 44.5643 100.575C45.0845 99.791 46.1643 99.3964 47.1783 99.4877C48.5533 99.6115 49.7082 100.496 49.9411 101.806C50.1709 103.098 49.3242 103.853 47.9321 103.728ZM55.8337 106.644C55.9379 107.23 55.6786 108.055 55.1792 109.146L56.4683 109.262C57.0646 108.145 57.5929 106.836 57.3416 105.423C57.1609 104.406 56.4318 103.73 55.5553 103.651C54.6959 103.573 54.1845 104.121 54.3407 105C54.3928 105.293 54.5358 105.526 54.6898 105.727C55.2864 105.848 55.7357 106.092 55.8337 106.644ZM66.8498 102.531L65.4802 94.8265L63.16 94.6176L58.2576 101.859L58.61 103.841L64.9004 104.407L65.3968 107.2L67.717 107.409L67.2206 104.616L69.008 104.777L68.6373 102.692L66.8498 102.531ZM64.5296 102.322L60.8173 101.988L63.6992 97.6511L64.5296 102.322ZM73.5028 95.3792C70.9763 95.1518 69.2001 96.6708 69.6536 99.2217C70.0917 101.686 71.9972 103.367 74.4549 103.589C75.7783 103.708 76.9441 103.321 77.6269 102.501C77.849 105.081 76.7585 106.272 74.5585 106.074C73.4242 105.972 72.2175 105.558 71.575 105.178L71.9702 107.401C72.7331 107.792 73.876 108.133 75.0619 108.239C78.6195 108.56 80.5925 106.244 79.8234 101.918C79.1186 97.9539 76.6308 95.6609 73.5028 95.3792ZM74.6648 101.725C73.2898 101.601 72.1349 100.717 71.902 99.4072C71.6722 98.1145 72.5189 97.3597 73.911 97.4851C75.3719 97.6166 76.6545 98.6479 77.2647 100.653C76.7415 101.42 75.6788 101.816 74.6648 101.725ZM87.7728 109.384C84.6619 109.104 82.1411 106.435 81.4333 102.453C80.7285 98.4889 82.3669 96.1943 85.4777 96.4743C88.5886 96.7544 91.1094 99.4236 91.8142 103.388C92.522 107.369 90.8836 109.664 87.7728 109.384ZM87.3989 107.281C89.1348 107.437 89.9559 105.968 89.4596 103.176C88.9662 100.401 87.5844 98.7161 85.8485 98.5598C84.1126 98.4036 83.3117 99.8917 83.8051 102.667C84.3015 105.459 85.6631 107.125 87.3989 107.281Z" fill="white"/>
</svg>
