<svg width="341" height="201" viewBox="0 0 341 201" fill="none" xmlns="http://www.w3.org/2000/svg">
<g clip-path="url(#clip0_3401_1468)">
<path d="M315 6.5H30C20.6112 6.5 13 14.1112 13 23.5V171.5C13 180.889 20.6112 188.5 30 188.5H315C324.389 188.5 332 180.889 332 171.5V23.5C332 14.1112 324.389 6.5 315 6.5Z" fill="white"/>
<path fill-rule="evenodd" clip-rule="evenodd" d="M306.5 105.999C306.5 124.698 296.033 140.997 280.53 149.575C273.136 153.665 264.596 156 255.5 156C227.333 156 204.5 133.617 204.5 105.999C204.5 78.383 227.333 56 255.5 56C283.667 56 306.5 78.383 306.5 105.999Z" fill="white"/>
<path fill-rule="evenodd" clip-rule="evenodd" d="M291.706 106C291.706 119.274 284.276 130.845 273.27 136.935C268.02 139.839 261.958 141.496 255.5 141.496C235.504 141.496 219.294 125.606 219.294 105.999C219.294 86.394 235.504 70.504 255.5 70.504C275.496 70.504 291.706 86.395 291.706 106Z" stroke="#FFE8B6" stroke-width="3.817"/>
<path fill-rule="evenodd" clip-rule="evenodd" d="M262.057 95.07V98.793H266.5V102.3H261.926C261.578 104.898 260.481 106.86 258.637 108.189C256.793 109.516 253.984 110.18 250.208 110.18V112.908C250.208 115.91 251.458 117.411 253.955 117.411C255.175 117.411 256.082 117.035 256.677 116.285C257.272 115.535 257.57 114.409 257.57 112.908H263.277C263.16 115.765 262.333 117.995 260.794 119.598C259.254 121.199 257.062 122 254.216 122C251.051 122 248.633 121.17 246.963 119.51C245.293 117.85 244.458 115.361 244.458 112.042V106.197C247.624 106.197 249.991 106.103 251.558 105.916C253.127 105.728 254.252 105.36 254.935 104.811C255.617 104.263 256.045 103.426 256.22 102.301H243.5V98.793H256.307V95.07H243.5V91H266.5V95.07H262.057Z" fill="#FFE8B6"/>
<g opacity="0.553">
<path d="M150.791 17.916C152.056 17.916 153.082 16.8155 153.082 15.458C153.082 14.1005 152.056 13 150.791 13C149.526 13 148.5 14.1005 148.5 15.458C148.5 16.8155 149.526 17.916 150.791 17.916Z" fill="white"/>
<path d="M162.455 17.916C163.72 17.916 164.746 16.8155 164.746 15.458C164.746 14.1005 163.72 13 162.455 13C161.19 13 160.164 14.1005 160.164 15.458C160.164 16.8155 161.19 17.916 162.455 17.916Z" fill="white"/>
<path d="M174.952 17.916C176.217 17.916 177.243 16.8155 177.243 15.458C177.243 14.1005 176.217 13 174.952 13C173.687 13 172.661 14.1005 172.661 15.458C172.661 16.8155 173.687 17.916 174.952 17.916Z" fill="white"/>
<path d="M150.791 17.916C152.056 17.916 153.082 16.8155 153.082 15.458C153.082 14.1005 152.056 13 150.791 13C149.526 13 148.5 14.1005 148.5 15.458C148.5 16.8155 149.526 17.916 150.791 17.916Z" fill="white"/>
<path d="M162.455 17.916C163.72 17.916 164.746 16.8155 164.746 15.458C164.746 14.1005 163.72 13 162.455 13C161.19 13 160.164 14.1005 160.164 15.458C160.164 16.8155 161.19 17.916 162.455 17.916Z" fill="white"/>
<path d="M174.952 17.916C176.217 17.916 177.243 16.8155 177.243 15.458C177.243 14.1005 176.217 13 174.952 13C173.687 13 172.661 14.1005 172.661 15.458C172.661 16.8155 173.687 17.916 174.952 17.916Z" fill="white"/>
<path d="M150.791 30.822C152.056 30.822 153.082 29.7215 153.082 28.364C153.082 27.0065 152.056 25.906 150.791 25.906C149.526 25.906 148.5 27.0065 148.5 28.364C148.5 29.7215 149.526 30.822 150.791 30.822Z" fill="white"/>
<path d="M162.455 30.822C163.72 30.822 164.746 29.7215 164.746 28.364C164.746 27.0065 163.72 25.906 162.455 25.906C161.19 25.906 160.164 27.0065 160.164 28.364C160.164 29.7215 161.19 30.822 162.455 30.822Z" fill="white"/>
<path d="M174.952 30.822C176.217 30.822 177.243 29.7215 177.243 28.364C177.243 27.0065 176.217 25.906 174.952 25.906C173.687 25.906 172.661 27.0065 172.661 28.364C172.661 29.7215 173.687 30.822 174.952 30.822Z" fill="white"/>
<path d="M150.791 30.822C152.056 30.822 153.082 29.7215 153.082 28.364C153.082 27.0065 152.056 25.906 150.791 25.906C149.526 25.906 148.5 27.0065 148.5 28.364C148.5 29.7215 149.526 30.822 150.791 30.822Z" fill="white"/>
<path d="M162.455 30.822C163.72 30.822 164.746 29.7215 164.746 28.364C164.746 27.0065 163.72 25.906 162.455 25.906C161.19 25.906 160.164 27.0065 160.164 28.364C160.164 29.7215 161.19 30.822 162.455 30.822Z" fill="white"/>
<path d="M174.952 30.822C176.217 30.822 177.243 29.7215 177.243 28.364C177.243 27.0065 176.217 25.906 174.952 25.906C173.687 25.906 172.661 27.0065 172.661 28.364C172.661 29.7215 173.687 30.822 174.952 30.822Z" fill="white"/>
<path d="M150.791 43.728C152.056 43.728 153.082 42.6275 153.082 41.27C153.082 39.9125 152.056 38.812 150.791 38.812C149.526 38.812 148.5 39.9125 148.5 41.27C148.5 42.6275 149.526 43.728 150.791 43.728Z" fill="white"/>
<path d="M162.455 43.728C163.72 43.728 164.746 42.6275 164.746 41.27C164.746 39.9125 163.72 38.812 162.455 38.812C161.19 38.812 160.164 39.9125 160.164 41.27C160.164 42.6275 161.19 43.728 162.455 43.728Z" fill="white"/>
<path d="M174.952 43.728C176.217 43.728 177.243 42.6275 177.243 41.27C177.243 39.9125 176.217 38.812 174.952 38.812C173.687 38.812 172.661 39.9125 172.661 41.27C172.661 42.6275 173.687 43.728 174.952 43.728Z" fill="white"/>
<path d="M150.791 43.728C152.056 43.728 153.082 42.6275 153.082 41.27C153.082 39.9125 152.056 38.812 150.791 38.812C149.526 38.812 148.5 39.9125 148.5 41.27C148.5 42.6275 149.526 43.728 150.791 43.728Z" fill="white"/>
<path d="M162.455 43.728C163.72 43.728 164.746 42.6275 164.746 41.27C164.746 39.9125 163.72 38.812 162.455 38.812C161.19 38.812 160.164 39.9125 160.164 41.27C160.164 42.6275 161.19 43.728 162.455 43.728Z" fill="white"/>
<path d="M174.952 43.728C176.217 43.728 177.243 42.6275 177.243 41.27C177.243 39.9125 176.217 38.812 174.952 38.812C173.687 38.812 172.661 39.9125 172.661 41.27C172.661 42.6275 173.687 43.728 174.952 43.728Z" fill="white"/>
<path d="M187.484 17.916C188.749 17.916 189.775 16.8155 189.775 15.458C189.775 14.1005 188.749 13 187.484 13C186.219 13 185.193 14.1005 185.193 15.458C185.193 16.8155 186.219 17.916 187.484 17.916Z" fill="white"/>
<path d="M199.148 17.916C200.413 17.916 201.439 16.8155 201.439 15.458C201.439 14.1005 200.413 13 199.148 13C197.883 13 196.857 14.1005 196.857 15.458C196.857 16.8155 197.883 17.916 199.148 17.916Z" fill="white"/>
<path d="M211.645 17.916C212.91 17.916 213.936 16.8155 213.936 15.458C213.936 14.1005 212.91 13 211.645 13C210.38 13 209.354 14.1005 209.354 15.458C209.354 16.8155 210.38 17.916 211.645 17.916Z" fill="white"/>
<path d="M187.484 17.916C188.749 17.916 189.775 16.8155 189.775 15.458C189.775 14.1005 188.749 13 187.484 13C186.219 13 185.193 14.1005 185.193 15.458C185.193 16.8155 186.219 17.916 187.484 17.916Z" fill="white"/>
<path d="M199.148 17.916C200.413 17.916 201.439 16.8155 201.439 15.458C201.439 14.1005 200.413 13 199.148 13C197.883 13 196.857 14.1005 196.857 15.458C196.857 16.8155 197.883 17.916 199.148 17.916Z" fill="white"/>
<path d="M211.645 17.916C212.91 17.916 213.936 16.8155 213.936 15.458C213.936 14.1005 212.91 13 211.645 13C210.38 13 209.354 14.1005 209.354 15.458C209.354 16.8155 210.38 17.916 211.645 17.916Z" fill="white"/>
<path d="M187.484 30.822C188.749 30.822 189.775 29.7215 189.775 28.364C189.775 27.0065 188.749 25.906 187.484 25.906C186.219 25.906 185.193 27.0065 185.193 28.364C185.193 29.7215 186.219 30.822 187.484 30.822Z" fill="white"/>
<path d="M199.148 30.822C200.413 30.822 201.439 29.7215 201.439 28.364C201.439 27.0065 200.413 25.906 199.148 25.906C197.883 25.906 196.857 27.0065 196.857 28.364C196.857 29.7215 197.883 30.822 199.148 30.822Z" fill="white"/>
<path d="M211.645 30.822C212.91 30.822 213.936 29.7215 213.936 28.364C213.936 27.0065 212.91 25.906 211.645 25.906C210.38 25.906 209.354 27.0065 209.354 28.364C209.354 29.7215 210.38 30.822 211.645 30.822Z" fill="white"/>
<path d="M187.484 30.822C188.749 30.822 189.775 29.7215 189.775 28.364C189.775 27.0065 188.749 25.906 187.484 25.906C186.219 25.906 185.193 27.0065 185.193 28.364C185.193 29.7215 186.219 30.822 187.484 30.822Z" fill="white"/>
<path d="M199.148 30.822C200.413 30.822 201.439 29.7215 201.439 28.364C201.439 27.0065 200.413 25.906 199.148 25.906C197.883 25.906 196.857 27.0065 196.857 28.364C196.857 29.7215 197.883 30.822 199.148 30.822Z" fill="white"/>
<path d="M211.645 30.822C212.91 30.822 213.936 29.7215 213.936 28.364C213.936 27.0065 212.91 25.906 211.645 25.906C210.38 25.906 209.354 27.0065 209.354 28.364C209.354 29.7215 210.38 30.822 211.645 30.822Z" fill="white"/>
<path d="M187.484 43.728C188.749 43.728 189.775 42.6275 189.775 41.27C189.775 39.9125 188.749 38.812 187.484 38.812C186.219 38.812 185.193 39.9125 185.193 41.27C185.193 42.6275 186.219 43.728 187.484 43.728Z" fill="white"/>
<path d="M199.148 43.728C200.413 43.728 201.439 42.6275 201.439 41.27C201.439 39.9125 200.413 38.812 199.148 38.812C197.883 38.812 196.857 39.9125 196.857 41.27C196.857 42.6275 197.883 43.728 199.148 43.728Z" fill="white"/>
<path d="M211.645 43.728C212.91 43.728 213.936 42.6275 213.936 41.27C213.936 39.9125 212.91 38.812 211.645 38.812C210.38 38.812 209.354 39.9125 209.354 41.27C209.354 42.6275 210.38 43.728 211.645 43.728Z" fill="white"/>
<path d="M187.484 43.728C188.749 43.728 189.775 42.6275 189.775 41.27C189.775 39.9125 188.749 38.812 187.484 38.812C186.219 38.812 185.193 39.9125 185.193 41.27C185.193 42.6275 186.219 43.728 187.484 43.728Z" fill="white"/>
<path d="M199.148 43.728C200.413 43.728 201.439 42.6275 201.439 41.27C201.439 39.9125 200.413 38.812 199.148 38.812C197.883 38.812 196.857 39.9125 196.857 41.27C196.857 42.6275 197.883 43.728 199.148 43.728Z" fill="white"/>
<path d="M211.645 43.728C212.91 43.728 213.936 42.6275 213.936 41.27C213.936 39.9125 212.91 38.812 211.645 38.812C210.38 38.812 209.354 39.9125 209.354 41.27C209.354 42.6275 210.38 43.728 211.645 43.728Z" fill="white"/>
<path d="M150.791 3.728C152.056 3.728 153.082 2.62752 153.082 1.27C153.082 -0.0875157 152.056 -1.188 150.791 -1.188C149.526 -1.188 148.5 -0.0875157 148.5 1.27C148.5 2.62752 149.526 3.728 150.791 3.728Z" fill="white"/>
<path d="M162.455 3.728C163.72 3.728 164.746 2.62752 164.746 1.27C164.746 -0.0875157 163.72 -1.188 162.455 -1.188C161.19 -1.188 160.164 -0.0875157 160.164 1.27C160.164 2.62752 161.19 3.728 162.455 3.728Z" fill="white"/>
<path d="M174.952 3.728C176.217 3.728 177.243 2.62752 177.243 1.27C177.243 -0.0875157 176.217 -1.188 174.952 -1.188C173.687 -1.188 172.661 -0.0875157 172.661 1.27C172.661 2.62752 173.687 3.728 174.952 3.728Z" fill="white"/>
<path d="M150.791 3.728C152.056 3.728 153.082 2.62752 153.082 1.27C153.082 -0.0875157 152.056 -1.188 150.791 -1.188C149.526 -1.188 148.5 -0.0875157 148.5 1.27C148.5 2.62752 149.526 3.728 150.791 3.728Z" fill="white"/>
<path d="M162.455 3.728C163.72 3.728 164.746 2.62752 164.746 1.27C164.746 -0.0875157 163.72 -1.188 162.455 -1.188C161.19 -1.188 160.164 -0.0875157 160.164 1.27C160.164 2.62752 161.19 3.728 162.455 3.728Z" fill="white"/>
<path d="M174.952 3.728C176.217 3.728 177.243 2.62752 177.243 1.27C177.243 -0.0875157 176.217 -1.188 174.952 -1.188C173.687 -1.188 172.661 -0.0875157 172.661 1.27C172.661 2.62752 173.687 3.728 174.952 3.728Z" fill="white"/>
<path d="M187.484 3.728C188.749 3.728 189.775 2.62752 189.775 1.27C189.775 -0.0875157 188.749 -1.188 187.484 -1.188C186.219 -1.188 185.193 -0.0875157 185.193 1.27C185.193 2.62752 186.219 3.728 187.484 3.728Z" fill="white"/>
<path d="M199.148 3.728C200.413 3.728 201.439 2.62752 201.439 1.27C201.439 -0.0875157 200.413 -1.188 199.148 -1.188C197.883 -1.188 196.857 -0.0875157 196.857 1.27C196.857 2.62752 197.883 3.728 199.148 3.728Z" fill="white"/>
<path d="M211.645 3.728C212.91 3.728 213.936 2.62752 213.936 1.27C213.936 -0.0875157 212.91 -1.188 211.645 -1.188C210.38 -1.188 209.354 -0.0875157 209.354 1.27C209.354 2.62752 210.38 3.728 211.645 3.728Z" fill="white"/>
<path d="M187.484 3.728C188.749 3.728 189.775 2.62752 189.775 1.27C189.775 -0.0875157 188.749 -1.188 187.484 -1.188C186.219 -1.188 185.193 -0.0875157 185.193 1.27C185.193 2.62752 186.219 3.728 187.484 3.728Z" fill="white"/>
<path d="M199.148 3.728C200.413 3.728 201.439 2.62752 201.439 1.27C201.439 -0.0875157 200.413 -1.188 199.148 -1.188C197.883 -1.188 196.857 -0.0875157 196.857 1.27C196.857 2.62752 197.883 3.728 199.148 3.728Z" fill="white"/>
<path d="M211.645 3.728C212.91 3.728 213.936 2.62752 213.936 1.27C213.936 -0.0875157 212.91 -1.188 211.645 -1.188C210.38 -1.188 209.354 -0.0875157 209.354 1.27C209.354 2.62752 210.38 3.728 211.645 3.728Z" fill="white"/>
</g>
</g>
<defs>
<clipPath id="clip0_3401_1468">
<rect width="340" height="201" fill="white" transform="translate(0.5)"/>
</clipPath>
</defs>
</svg>
