<svg width="116" height="115" viewBox="0 0 116 115" fill="none" xmlns="http://www.w3.org/2000/svg">
<g clip-path="url(#clip0_976_2668)">
<path d="M9.10691 47.128L59.5573 76.2551L110.008 47.128L110.008 68.0368L59.5574 94.9829L9.108 68.0367L9.10691 47.128Z" fill="url(#paint0_linear_976_2668)"/>
<rect width="58.2551" height="58.2551" rx="1" transform="matrix(0.866025 -0.5 0.866025 0.5 9.10742 47.127)" fill="#BDFFEE"/>
<mask id="path-3-outside-1_976_2668" maskUnits="userSpaceOnUse" x="25.4574" y="27.127" width="69.282" height="40" fill="black">
<rect fill="white" x="25.4574" y="27.127" width="69.282" height="40"/>
<path fill-rule="evenodd" clip-rule="evenodd" d="M46.4158 36.0266C45.877 36.3377 45.877 36.842 46.4158 37.1531L58.5814 44.1769C59.1202 44.488 59.9937 44.488 60.5325 44.1769L72.6981 37.1531C73.2369 36.842 73.2369 36.3377 72.6981 36.0266L60.5325 29.0028C59.9937 28.6918 59.1202 28.6917 58.5814 29.0028L46.4158 36.0266ZM59.5569 42.4872L49.3424 36.5899L59.5569 30.6925L69.7715 36.5899L59.5569 42.4872ZM28.1652 47.6902C27.6264 47.3791 27.6264 46.8748 28.1652 46.5637L40.3308 39.5399C40.8696 39.2288 41.7431 39.2288 42.2819 39.5399L54.4475 46.5637C54.9863 46.8748 54.9863 47.3791 54.4475 47.6902L42.2819 54.714C41.7431 55.0251 40.8696 55.0251 40.3308 54.714L28.1652 47.6902ZM31.0918 47.127L41.3063 53.0243L51.5209 47.127L41.3063 41.2296L31.0918 47.127ZM40.3312 47.6902C39.7924 47.3791 39.7924 46.8748 40.3312 46.5637L40.3473 46.5544C40.886 46.2434 41.7596 46.2434 42.2984 46.5544C42.8371 46.8655 42.8371 47.3698 42.2984 47.6809L42.2822 47.6902C41.7435 48.0012 40.8699 48.0012 40.3312 47.6902ZM58.5818 37.1531C58.043 36.842 58.043 36.3377 58.5818 36.0266L58.5979 36.0173C59.1366 35.7063 60.0102 35.7063 60.5489 36.0173C61.0877 36.3284 61.0877 36.8327 60.5489 37.1438L60.5328 37.1531C59.9941 37.4642 59.1205 37.4642 58.5818 37.1531ZM46.4158 57.1008C45.877 57.4119 45.877 57.9162 46.4158 58.2273L58.5814 65.2511C59.1202 65.5622 59.9937 65.5622 60.5325 65.2511L72.6981 58.2273C73.2369 57.9162 73.2369 57.4119 72.6981 57.1008L60.5325 50.077C59.9937 49.7659 59.1202 49.7659 58.5814 50.077L46.4158 57.1008ZM59.5569 63.5614L49.3424 57.664L59.5569 51.7667L69.7715 57.664L59.5569 63.5614ZM58.5825 58.2273C58.0438 57.9162 58.0438 57.4119 58.5825 57.1008L58.5986 57.0915C59.1374 56.7804 60.011 56.7804 60.5497 57.0915C61.0885 57.4026 61.0885 57.9069 60.5497 58.218L60.5336 58.2273C59.9949 58.5383 59.1213 58.5383 58.5825 58.2273ZM64.6663 46.5637C64.1276 46.8748 64.1276 47.3791 64.6663 47.6902C65.2051 48.0012 66.0787 48.0012 66.6174 47.6902L66.6335 47.6809C67.1723 47.3698 67.1723 46.8655 66.6335 46.5544C66.0948 46.2434 65.2212 46.2434 64.6824 46.5544L64.6663 46.5637ZM76.8331 47.6902C76.2944 47.3791 76.2944 46.8748 76.8331 46.5637L76.8492 46.5544C77.388 46.2434 78.2616 46.2434 78.8003 46.5544C79.3391 46.8655 79.3391 47.3698 78.8003 47.6809L78.7842 47.6902C78.2455 48.0012 77.3719 48.0012 76.8331 47.6902ZM84.867 43.0518C84.3283 42.7407 83.4547 42.7407 82.916 43.0518C82.3772 43.3629 82.3772 43.8672 82.916 44.1783L88.0232 47.127L82.916 50.0756C82.3772 50.3867 82.3772 50.891 82.916 51.2021C83.4547 51.5132 84.3283 51.5132 84.867 51.2021L90.9499 47.6902C91.4886 47.3791 91.4886 46.8748 90.9499 46.5637L84.867 43.0518ZM70.7501 50.0758C71.2889 49.7648 72.1625 49.7648 72.7012 50.0758L78.784 53.5877C79.3228 53.8988 79.3228 54.4031 78.784 54.7142C78.2453 55.0253 77.3717 55.0253 76.833 54.7142L70.7501 51.2023C70.2114 50.8912 70.2114 50.3869 70.7501 50.0758ZM70.7501 43.0516C70.2114 43.3627 70.2114 43.867 70.7501 44.1781C71.2889 44.4892 72.1625 44.4892 72.7012 44.1781L78.784 40.6662C79.3228 40.3551 79.3228 39.8508 78.784 39.5397C78.2453 39.2286 77.3717 39.2287 76.833 39.5397L70.7501 43.0516Z"/>
</mask>
<path fill-rule="evenodd" clip-rule="evenodd" d="M46.4158 36.0266C45.877 36.3377 45.877 36.842 46.4158 37.1531L58.5814 44.1769C59.1202 44.488 59.9937 44.488 60.5325 44.1769L72.6981 37.1531C73.2369 36.842 73.2369 36.3377 72.6981 36.0266L60.5325 29.0028C59.9937 28.6918 59.1202 28.6917 58.5814 29.0028L46.4158 36.0266ZM59.5569 42.4872L49.3424 36.5899L59.5569 30.6925L69.7715 36.5899L59.5569 42.4872ZM28.1652 47.6902C27.6264 47.3791 27.6264 46.8748 28.1652 46.5637L40.3308 39.5399C40.8696 39.2288 41.7431 39.2288 42.2819 39.5399L54.4475 46.5637C54.9863 46.8748 54.9863 47.3791 54.4475 47.6902L42.2819 54.714C41.7431 55.0251 40.8696 55.0251 40.3308 54.714L28.1652 47.6902ZM31.0918 47.127L41.3063 53.0243L51.5209 47.127L41.3063 41.2296L31.0918 47.127ZM40.3312 47.6902C39.7924 47.3791 39.7924 46.8748 40.3312 46.5637L40.3473 46.5544C40.886 46.2434 41.7596 46.2434 42.2984 46.5544C42.8371 46.8655 42.8371 47.3698 42.2984 47.6809L42.2822 47.6902C41.7435 48.0012 40.8699 48.0012 40.3312 47.6902ZM58.5818 37.1531C58.043 36.842 58.043 36.3377 58.5818 36.0266L58.5979 36.0173C59.1366 35.7063 60.0102 35.7063 60.5489 36.0173C61.0877 36.3284 61.0877 36.8327 60.5489 37.1438L60.5328 37.1531C59.9941 37.4642 59.1205 37.4642 58.5818 37.1531ZM46.4158 57.1008C45.877 57.4119 45.877 57.9162 46.4158 58.2273L58.5814 65.2511C59.1202 65.5622 59.9937 65.5622 60.5325 65.2511L72.6981 58.2273C73.2369 57.9162 73.2369 57.4119 72.6981 57.1008L60.5325 50.077C59.9937 49.7659 59.1202 49.7659 58.5814 50.077L46.4158 57.1008ZM59.5569 63.5614L49.3424 57.664L59.5569 51.7667L69.7715 57.664L59.5569 63.5614ZM58.5825 58.2273C58.0438 57.9162 58.0438 57.4119 58.5825 57.1008L58.5986 57.0915C59.1374 56.7804 60.011 56.7804 60.5497 57.0915C61.0885 57.4026 61.0885 57.9069 60.5497 58.218L60.5336 58.2273C59.9949 58.5383 59.1213 58.5383 58.5825 58.2273ZM64.6663 46.5637C64.1276 46.8748 64.1276 47.3791 64.6663 47.6902C65.2051 48.0012 66.0787 48.0012 66.6174 47.6902L66.6335 47.6809C67.1723 47.3698 67.1723 46.8655 66.6335 46.5544C66.0948 46.2434 65.2212 46.2434 64.6824 46.5544L64.6663 46.5637ZM76.8331 47.6902C76.2944 47.3791 76.2944 46.8748 76.8331 46.5637L76.8492 46.5544C77.388 46.2434 78.2616 46.2434 78.8003 46.5544C79.3391 46.8655 79.3391 47.3698 78.8003 47.6809L78.7842 47.6902C78.2455 48.0012 77.3719 48.0012 76.8331 47.6902ZM84.867 43.0518C84.3283 42.7407 83.4547 42.7407 82.916 43.0518C82.3772 43.3629 82.3772 43.8672 82.916 44.1783L88.0232 47.127L82.916 50.0756C82.3772 50.3867 82.3772 50.891 82.916 51.2021C83.4547 51.5132 84.3283 51.5132 84.867 51.2021L90.9499 47.6902C91.4886 47.3791 91.4886 46.8748 90.9499 46.5637L84.867 43.0518ZM70.7501 50.0758C71.2889 49.7648 72.1625 49.7648 72.7012 50.0758L78.784 53.5877C79.3228 53.8988 79.3228 54.4031 78.784 54.7142C78.2453 55.0253 77.3717 55.0253 76.833 54.7142L70.7501 51.2023C70.2114 50.8912 70.2114 50.3869 70.7501 50.0758ZM70.7501 43.0516C70.2114 43.3627 70.2114 43.867 70.7501 44.1781C71.2889 44.4892 72.1625 44.4892 72.7012 44.1781L78.784 40.6662C79.3228 40.3551 79.3228 39.8508 78.784 39.5397C78.2453 39.2286 77.3717 39.2287 76.833 39.5397L70.7501 43.0516Z" fill="#5E2B9D"/>
<path d="M60.5325 44.1769L59.6664 43.6769L60.5325 44.1769ZM72.6981 37.1531L73.5641 37.6531L72.6981 37.1531ZM72.6981 36.0266L71.8321 36.5266L72.6981 36.0266ZM60.5325 29.0028L61.3985 28.5028L60.5325 29.0028ZM49.3424 36.5899L48.4764 36.0899C47.9981 36.366 47.9981 36.8137 48.4764 37.0899L49.3424 36.5899ZM59.5569 42.4872L58.6909 42.9872C59.1692 43.2634 59.9447 43.2634 60.423 42.9872L59.5569 42.4872ZM59.5569 30.6925L60.423 30.1925C59.9447 29.9164 59.1692 29.9164 58.6909 30.1925L59.5569 30.6925ZM69.7715 36.5899L70.6375 37.0899C71.1158 36.8137 71.1158 36.366 70.6375 36.0899L69.7715 36.5899ZM42.2819 39.5399L41.4159 40.0399L42.2819 39.5399ZM54.4475 46.5637L55.3135 46.0637L54.4475 46.5637ZM54.4475 47.6902L53.5815 47.1902L54.4475 47.6902ZM42.2819 54.714L43.1479 55.214L42.2819 54.714ZM41.3063 53.0243L40.4403 53.5243C40.9186 53.8005 41.6941 53.8005 42.1724 53.5243L41.3063 53.0243ZM31.0918 47.127L30.2258 46.627C29.7475 46.9031 29.7475 47.3508 30.2258 47.627L31.0918 47.127ZM51.5209 47.127L52.3869 47.627C52.8652 47.3508 52.8652 46.9031 52.3869 46.627L51.5209 47.127ZM41.3063 41.2296L42.1724 40.7296C41.6941 40.4534 40.9186 40.4534 40.4403 40.7296L41.3063 41.2296ZM60.5489 37.1438L59.6829 36.6438L60.5489 37.1438ZM60.5328 37.1531L61.3989 37.6531L60.5328 37.1531ZM46.4158 58.2273L47.2818 57.7273L46.4158 58.2273ZM58.5814 65.2511L57.7154 65.7511L58.5814 65.2511ZM72.6981 57.1008L71.8321 57.6008L72.6981 57.1008ZM60.5325 50.077L61.3985 49.577L60.5325 50.077ZM49.3424 57.664L48.4764 57.164C47.9981 57.4402 47.9981 57.8879 48.4764 58.164L49.3424 57.664ZM59.5569 63.5614L58.6909 64.0614C59.1692 64.3375 59.9447 64.3375 60.423 64.0614L59.5569 63.5614ZM59.5569 51.7667L60.423 51.2667C59.9447 50.9905 59.1692 50.9905 58.6909 51.2667L59.5569 51.7667ZM69.7715 57.664L70.6375 58.164C71.1158 57.8879 71.1158 57.4402 70.6375 57.164L69.7715 57.664ZM82.916 44.1783L82.0499 44.6783L82.916 44.1783ZM88.0232 47.127L88.8893 47.627C89.1189 47.4943 89.248 47.3145 89.248 47.127C89.248 46.9394 89.1189 46.7596 88.8893 46.627L88.0232 47.127ZM72.7012 50.0758L73.5673 49.5758L72.7012 50.0758ZM78.784 53.5877L77.918 54.0877L78.784 53.5877ZM76.833 54.7142L77.699 54.2142L76.833 54.7142ZM70.7501 51.2023L69.8841 51.7023L70.7501 51.2023ZM47.2818 36.6531C47.2213 36.6182 47.2213 36.5616 47.2818 36.5266L45.5497 35.5266C44.5327 36.1138 44.5327 37.0659 45.5497 37.6531L47.2818 36.6531ZM59.4474 43.6769L47.2818 36.6531L45.5497 37.6531L57.7154 44.6769L59.4474 43.6769ZM59.6664 43.6769C59.606 43.7119 59.5079 43.7119 59.4474 43.6769L57.7154 44.6769C58.7324 45.2641 60.3814 45.2641 61.3985 44.6769L59.6664 43.6769ZM71.8321 36.6531L59.6664 43.6769L61.3985 44.6769L73.5641 37.6531L71.8321 36.6531ZM71.8321 36.5266C71.8926 36.5616 71.8926 36.6182 71.8321 36.6531L73.5641 37.6531C74.5812 37.0659 74.5812 36.1139 73.5641 35.5266L71.8321 36.5266ZM59.6664 29.5028L71.8321 36.5266L73.5641 35.5266L61.3985 28.5028L59.6664 29.5028ZM59.4474 29.5028C59.5079 29.4679 59.606 29.4679 59.6664 29.5028L61.3985 28.5028C60.3814 27.9156 58.7324 27.9156 57.7154 28.5028L59.4474 29.5028ZM47.2818 36.5266L59.4474 29.5028L57.7154 28.5028L45.5497 35.5266L47.2818 36.5266ZM48.4764 37.0899L58.6909 42.9872L60.423 41.9872L50.2084 36.0899L48.4764 37.0899ZM58.6909 30.1925L48.4764 36.0899L50.2084 37.0899L60.423 31.1925L58.6909 30.1925ZM70.6375 36.0899L60.423 30.1925L58.6909 31.1925L68.9054 37.0899L70.6375 36.0899ZM60.423 42.9872L70.6375 37.0899L68.9054 36.0899L58.6909 41.9872L60.423 42.9872ZM27.2991 46.0637C26.2821 46.6509 26.2821 47.603 27.2991 48.1902L29.0312 47.1902C28.9707 47.1553 28.9707 47.0986 29.0312 47.0637L27.2991 46.0637ZM39.4648 39.0399L27.2991 46.0637L29.0312 47.0637L41.1968 40.0399L39.4648 39.0399ZM43.1479 39.0399C42.1308 38.4527 40.4818 38.4527 39.4648 39.0399L41.1968 40.0399C41.2573 40.005 41.3554 40.005 41.4159 40.0399L43.1479 39.0399ZM55.3135 46.0637L43.1479 39.0399L41.4159 40.0399L53.5815 47.0637L55.3135 46.0637ZM55.3135 48.1902C56.3306 47.603 56.3306 46.6509 55.3135 46.0637L53.5815 47.0637C53.642 47.0986 53.642 47.1553 53.5815 47.1902L55.3135 48.1902ZM43.1479 55.214L55.3135 48.1902L53.5815 47.1902L41.4159 54.214L43.1479 55.214ZM39.4648 55.214C40.4818 55.8012 42.1308 55.8012 43.1479 55.214L41.4159 54.214C41.3554 54.2489 41.2573 54.2489 41.1968 54.214L39.4648 55.214ZM27.2991 48.1902L39.4648 55.214L41.1968 54.214L29.0312 47.1902L27.2991 48.1902ZM42.1724 52.5243L31.9578 46.627L30.2258 47.627L40.4403 53.5243L42.1724 52.5243ZM50.6549 46.627L40.4403 52.5243L42.1724 53.5243L52.3869 47.627L50.6549 46.627ZM40.4403 41.7296L50.6549 47.627L52.3869 46.627L42.1724 40.7296L40.4403 41.7296ZM31.9578 47.627L42.1724 41.7296L40.4403 40.7296L30.2258 46.627L31.9578 47.627ZM39.4651 46.0637C38.4481 46.6509 38.4481 47.603 39.4651 48.1902L41.1972 47.1902C41.1367 47.1553 41.1367 47.0986 41.1972 47.0637L39.4651 46.0637ZM39.4812 46.0544L39.4651 46.0637L41.1972 47.0637L41.2133 47.0544L39.4812 46.0544ZM43.1644 46.0544C42.1473 45.4672 40.4983 45.4672 39.4812 46.0544L41.2133 47.0544C41.2738 47.0195 41.3718 47.0195 41.4323 47.0544L43.1644 46.0544ZM43.1644 48.1809C44.1814 47.5937 44.1814 46.6416 43.1644 46.0544L41.4323 47.0544C41.4928 47.0893 41.4928 47.146 41.4323 47.1809L43.1644 48.1809ZM43.1483 48.1902L43.1644 48.1809L41.4323 47.1809L41.4162 47.1902L43.1483 48.1902ZM39.4651 48.1902C40.4822 48.7774 42.1312 48.7774 43.1483 48.1902L41.4162 47.1902C41.3557 47.2251 41.2577 47.2251 41.1972 47.1902L39.4651 48.1902ZM57.7157 35.5266C56.6987 36.1138 56.6987 37.0659 57.7157 37.6531L59.4478 36.6531C59.3873 36.6182 59.3873 36.5616 59.4478 36.5266L57.7157 35.5266ZM57.7318 35.5173L57.7157 35.5266L59.4478 36.5266L59.4639 36.5173L57.7318 35.5173ZM61.415 35.5173C60.3979 34.9301 58.7489 34.9301 57.7318 35.5173L59.4639 36.5173C59.5244 36.4824 59.6224 36.4824 59.6829 36.5173L61.415 35.5173ZM61.415 37.6438C62.432 37.0566 62.432 36.1046 61.415 35.5173L59.6829 36.5173C59.7434 36.5523 59.7434 36.6089 59.6829 36.6438L61.415 37.6438ZM61.3989 37.6531L61.415 37.6438L59.6829 36.6438L59.6668 36.6531L61.3989 37.6531ZM57.7157 37.6531C58.7328 38.2403 60.3818 38.2403 61.3989 37.6531L59.6668 36.6531C59.6063 36.688 59.5083 36.688 59.4478 36.6531L57.7157 37.6531ZM47.2818 57.7273C47.2213 57.6923 47.2213 57.6357 47.2818 57.6008L45.5497 56.6008C44.5327 57.188 44.5327 58.1401 45.5497 58.7273L47.2818 57.7273ZM59.4474 64.7511L47.2818 57.7273L45.5497 58.7273L57.7154 65.7511L59.4474 64.7511ZM59.6664 64.7511C59.606 64.786 59.5079 64.786 59.4474 64.7511L57.7154 65.7511C58.7324 66.3383 60.3814 66.3383 61.3985 65.7511L59.6664 64.7511ZM71.8321 57.7273L59.6664 64.7511L61.3985 65.7511L73.5641 58.7273L71.8321 57.7273ZM71.8321 57.6008C71.8926 57.6357 71.8926 57.6923 71.8321 57.7273L73.5641 58.7273C74.5812 58.1401 74.5812 57.188 73.5641 56.6008L71.8321 57.6008ZM59.6664 50.577L71.8321 57.6008L73.5641 56.6008L61.3985 49.577L59.6664 50.577ZM59.4474 50.577C59.5079 50.542 59.606 50.542 59.6664 50.577L61.3985 49.577C60.3814 48.9898 58.7324 48.9898 57.7154 49.577L59.4474 50.577ZM47.2818 57.6008L59.4474 50.577L57.7154 49.577L45.5497 56.6008L47.2818 57.6008ZM48.4764 58.164L58.6909 64.0614L60.423 63.0614L50.2084 57.164L48.4764 58.164ZM58.6909 51.2667L48.4764 57.164L50.2084 58.164L60.423 52.2667L58.6909 51.2667ZM70.6375 57.164L60.423 51.2667L58.6909 52.2667L68.9054 58.164L70.6375 57.164ZM60.423 64.0614L70.6375 58.164L68.9054 57.164L58.6909 63.0614L60.423 64.0614ZM57.7165 56.6008C56.6994 57.188 56.6995 58.1401 57.7165 58.7273L59.4486 57.7273C59.3881 57.6923 59.3881 57.6357 59.4486 57.6008L57.7165 56.6008ZM57.7326 56.5915L57.7165 56.6008L59.4486 57.6008L59.4647 57.5915L57.7326 56.5915ZM61.4158 56.5915C60.3987 56.0043 58.7497 56.0043 57.7326 56.5915L59.4647 57.5915C59.5252 57.5566 59.6232 57.5566 59.6837 57.5915L61.4158 56.5915ZM61.4158 58.718C62.4328 58.1308 62.4328 57.1787 61.4158 56.5915L59.6837 57.5915C59.7442 57.6264 59.7442 57.683 59.6837 57.718L61.4158 58.718ZM61.3997 58.7273L61.4158 58.718L59.6837 57.718L59.6676 57.7273L61.3997 58.7273ZM57.7165 58.7273C58.7336 59.3145 60.3826 59.3145 61.3997 58.7273L59.6676 57.7273C59.6071 57.7622 59.5091 57.7622 59.4486 57.7273L57.7165 58.7273ZM65.5324 47.1902C65.4719 47.1553 65.4719 47.0986 65.5324 47.0637L63.8003 46.0637C62.7832 46.6509 62.7832 47.603 63.8003 48.1902L65.5324 47.1902ZM65.7514 47.1902C65.6909 47.2251 65.5929 47.2251 65.5324 47.1902L63.8003 48.1902C64.8174 48.7774 66.4664 48.7774 67.4835 48.1902L65.7514 47.1902ZM65.7675 47.1809L65.7514 47.1902L67.4835 48.1902L67.4996 48.1809L65.7675 47.1809ZM65.7675 47.0544C65.828 47.0893 65.828 47.146 65.7675 47.1809L67.4996 48.1809C68.5166 47.5937 68.5166 46.6416 67.4996 46.0544L65.7675 47.0544ZM65.5485 47.0544C65.609 47.0195 65.707 47.0195 65.7675 47.0544L67.4996 46.0544C66.4825 45.4672 64.8335 45.4672 63.8164 46.0544L65.5485 47.0544ZM65.5324 47.0637L65.5485 47.0544L63.8164 46.0544L63.8003 46.0637L65.5324 47.0637ZM75.9671 46.0637C74.95 46.6509 74.95 47.603 75.9671 48.1902L77.6992 47.1902C77.6387 47.1553 77.6387 47.0986 77.6992 47.0637L75.9671 46.0637ZM75.9832 46.0544L75.9671 46.0637L77.6992 47.0637L77.7153 47.0544L75.9832 46.0544ZM79.6664 46.0544C78.6493 45.4672 77.0003 45.4672 75.9832 46.0544L77.7153 47.0544C77.7758 47.0195 77.8738 47.0195 77.9343 47.0544L79.6664 46.0544ZM79.6664 48.1809C80.6834 47.5937 80.6834 46.6416 79.6664 46.0544L77.9343 47.0544C77.9948 47.0893 77.9948 47.146 77.9343 47.1809L79.6664 48.1809ZM79.6503 48.1902L79.6664 48.1809L77.9343 47.1809L77.9182 47.1902L79.6503 48.1902ZM75.9671 48.1902C76.9842 48.7774 78.6332 48.7774 79.6503 48.1902L77.9182 47.1902C77.8577 47.2251 77.7597 47.2251 77.6992 47.1902L75.9671 48.1902ZM83.782 43.5518C83.8425 43.5169 83.9405 43.5169 84.001 43.5518L85.7331 42.5518C84.716 41.9646 83.067 41.9646 82.0499 42.5518L83.782 43.5518ZM83.782 43.6783C83.7215 43.6433 83.7215 43.5867 83.782 43.5518L82.0499 42.5518C81.0329 43.139 81.0329 44.0911 82.0499 44.6783L83.782 43.6783ZM88.8893 46.627L83.782 43.6783L82.0499 44.6783L87.1572 47.627L88.8893 46.627ZM83.782 50.5756L88.8893 47.627L87.1572 46.627L82.0499 49.5756L83.782 50.5756ZM83.782 50.7021C83.7215 50.6672 83.7215 50.6106 83.782 50.5756L82.0499 49.5756C81.0329 50.1628 81.0329 51.1149 82.0499 51.7021L83.782 50.7021ZM84.001 50.7021C83.9405 50.737 83.8425 50.737 83.782 50.7021L82.0499 51.7021C83.067 52.2893 84.716 52.2893 85.7331 51.7021L84.001 50.7021ZM90.0838 47.1902L84.001 50.7021L85.7331 51.7021L91.8159 48.1902L90.0838 47.1902ZM90.0838 47.0637C90.1443 47.0986 90.1443 47.1553 90.0838 47.1902L91.8159 48.1902C92.833 47.603 92.833 46.6509 91.8159 46.0637L90.0838 47.0637ZM84.001 43.5518L90.0838 47.0637L91.8159 46.0637L85.7331 42.5518L84.001 43.5518ZM73.5673 49.5758C72.5502 48.9886 70.9012 48.9886 69.8841 49.5758L71.6162 50.5758C71.6767 50.5409 71.7747 50.5409 71.8352 50.5758L73.5673 49.5758ZM79.6501 53.0877L73.5673 49.5758L71.8352 50.5758L77.918 54.0877L79.6501 53.0877ZM79.6501 55.2142C80.6671 54.627 80.6671 53.6749 79.6501 53.0877L77.918 54.0877C77.9785 54.1227 77.9785 54.1793 77.918 54.2142L79.6501 55.2142ZM75.9669 55.2142C76.984 55.8014 78.633 55.8014 79.6501 55.2142L77.918 54.2142C77.8575 54.2491 77.7595 54.2491 77.699 54.2142L75.9669 55.2142ZM69.8841 51.7023L75.9669 55.2142L77.699 54.2142L71.6162 50.7023L69.8841 51.7023ZM69.8841 49.5758C68.867 50.163 68.867 51.1151 69.8841 51.7023L71.6162 50.7023C71.5557 50.6674 71.5557 50.6107 71.6162 50.5758L69.8841 49.5758ZM71.6162 43.6781C71.5557 43.6432 71.5557 43.5865 71.6162 43.5516L69.8841 42.5516C68.867 43.1388 68.867 44.0909 69.8841 44.6781L71.6162 43.6781ZM71.8352 43.6781C71.7747 43.713 71.6767 43.713 71.6162 43.6781L69.8841 44.6781C70.9012 45.2653 72.5502 45.2653 73.5673 44.6781L71.8352 43.6781ZM77.918 40.1662L71.8352 43.6781L73.5673 44.6781L79.6501 41.1662L77.918 40.1662ZM77.918 40.0397C77.9785 40.0746 77.9785 40.1313 77.918 40.1662L79.6501 41.1662C80.6671 40.579 80.6671 39.6269 79.6501 39.0397L77.918 40.0397ZM77.699 40.0397C77.7595 40.0048 77.8575 40.0048 77.918 40.0397L79.6501 39.0397C78.633 38.4525 76.984 38.4525 75.9669 39.0397L77.699 40.0397ZM71.6162 43.5516L77.699 40.0397L75.9669 39.0397L69.8841 42.5516L71.6162 43.5516Z" fill="#5E2B9D" mask="url(#path-3-outside-1_976_2668)"/>
</g>
<defs>
<linearGradient id="paint0_linear_976_2668" x1="87.0087" y1="32.8617" x2="70.67" y2="104.54" gradientUnits="userSpaceOnUse">
<stop stop-color="#420F5A"/>
<stop offset="1" stop-color="#B86BDF" stop-opacity="0"/>
</linearGradient>
<clipPath id="clip0_976_2668">
<rect width="116" height="115" fill="white"/>
</clipPath>
</defs>
</svg>
